<svg xmlns="http://www.w3.org/2000/svg" width="12" height="12.003" viewBox="0 0 12 12.003">
  <g id="chat" transform="translate(0)">
    <g id="Group_7174" data-name="Group 7174" transform="translate(0 0)">
      <g id="Group_7173" data-name="Group 7173" transform="translate(0 0)">
        <path id="Path_9153" data-name="Path 9153" d="M2.74,1A5.977,5.977,0,0,1,7.01.076a.514.514,0,0,1,.078.008,6,6,0,0,1,4.887,6.938,6.14,6.14,0,0,1-.189.778,4.489,4.489,0,0,0,.229,3.24.5.5,0,0,1-.584.7l-2.241-.612A5.947,5.947,0,0,1,6.075,12a6.04,6.04,0,0,1-1.2-.12A6,6,0,0,1,2.74,1ZM1.9,8.77a5,5,0,0,0,6.932,1.4.5.5,0,0,1,.409-.066l1.526.416A5.5,5.5,0,0,1,10.831,7.5a5.093,5.093,0,0,0,.158-.652A5,5,0,0,0,6.983,1.082a.578.578,0,0,1-.072-.008A5,5,0,0,0,1.9,8.77Z" transform="translate(-0.064 0)" fill="#ffbf3e"/>
      </g>
      <path id="Path_9154" data-name="Path 9154" d="M218.84,333.382a.629.629,0,1,1,0,1.259.63.63,0,0,1,0-1.259Z" transform="translate(-213.011 -325.845)" fill="#ffbf3e"/>
      <path id="Path_9155" data-name="Path 9155" d="M218.51,157.194a.685.685,0,0,1,.486.687c-.015.2-.028.4-.043.6-.043.758-.086,1.5-.128,2.258a.461.461,0,0,1-.471.443.471.471,0,0,1-.471-.458c0-.156,0-.3-.015-.458-.028-.486-.058-.972-.086-1.458-.015-.315-.043-.629-.058-.944a.778.778,0,0,1,.058-.315A.631.631,0,0,1,218.51,157.194Z" transform="translate(-212.525 -154.231)" fill="#ffbf3e"/>
    </g>
  </g>
</svg>
