<svg xmlns="http://www.w3.org/2000/svg" width="195.235" height="197.55" viewBox="0 0 195.235 197.55">
  <g id="Group_7135" data-name="Group 7135" transform="translate(-28.449 -28)">
    <g id="Background_Simple" data-name="Background Simple" transform="translate(28.875 28)">
      <g id="Group_7090" data-name="Group 7090">
        <path id="Path_9043" data-name="Path 9043" d="M220.616,129.723c-4.635,17.293-15.642,36.584-33.053,43.65-26.307,10.68-27.452,32.82-76.153,35.44a98.3,98.3,0,0,1-21.269-1.068,81.781,81.781,0,0,1-10.176-2.336c-29.437-8.764-46.638-32.61-50.4-58.924-4.949-34.608,17.72-53.5,32.555-64.713S92.358,31.148,140.214,28.2a95.271,95.271,0,0,1,21.862,1.085c16.466,2.807,33.7,10.853,44.529,23.991q1.219,1.481,2.351,3.04C223.7,76.624,226.936,106.146,220.616,129.723Z" transform="translate(-28.875 -28)" fill="#cdf3f0"/>
        <path id="Path_9044" data-name="Path 9044" d="M220.616,129.723c-4.635,17.293-15.642,36.584-33.053,43.65-26.307,10.68-27.452,32.82-76.153,35.44a98.3,98.3,0,0,1-21.269-1.068,81.781,81.781,0,0,1-10.176-2.336c-29.437-8.764-46.638-32.61-50.4-58.924-4.949-34.608,17.72-53.5,32.555-64.713S92.358,31.148,140.214,28.2a95.271,95.271,0,0,1,21.862,1.085c16.466,2.807,33.7,10.853,44.529,23.991q1.219,1.481,2.351,3.04C223.7,76.624,226.936,106.146,220.616,129.723Z" transform="translate(-28.875 -28)" fill="#cdf3f0" opacity="0.7"/>
      </g>
    </g>
    <g id="Graphics" transform="translate(36.002 38.242)">
      <path id="Path_9045" data-name="Path 9045" d="M70.206,98.939V96.483c0-4.85-3.226-6.566-6.523-6.566a6.341,6.341,0,0,0-6.45,6.566v2.456h-.918v13.6H71.052v-13.6Zm-6.088,7.476v2.464h-1.4v-2.464a1.861,1.861,0,1,1,1.4,0Zm4.045-7.476H59.2V96.483A4.486,4.486,0,0,1,63.684,92a4.294,4.294,0,0,1,4.481,4.481Z" transform="translate(-51.547 -73.318)" fill="none" stroke="#000" stroke-miterlimit="10" stroke-width="1" opacity="0.3"/>
      <g id="Group_7092" data-name="Group 7092" transform="translate(23.042)">
        <rect id="Rectangle_1792" data-name="Rectangle 1792" width="53.452" height="11.683" rx="5.841" fill="none" stroke="#000" stroke-miterlimit="10" stroke-width="1" opacity="0.3"/>
        <g id="Group_7091" data-name="Group 7091" transform="translate(8.782 3.149)" opacity="0.3">
          <path id="Path_9046" data-name="Path 9046" d="M121.061,61.04l1.218,1.344-.586.437-.908-1.6-.9,1.6-.586-.437,1.207-1.344-1.781-.368.218-.7,1.678.736-.207-1.815h.736l-.2,1.815,1.678-.724.218.7Z" transform="translate(-118.728 -58.891)"/>
          <path id="Path_9047" data-name="Path 9047" d="M131.528,61.04l1.218,1.344-.586.437-.908-1.6-.9,1.6-.586-.437,1.207-1.344-1.781-.368.218-.7,1.678.736-.207-1.815h.735l-.2,1.815,1.678-.724.218.7Z" transform="translate(-124.658 -58.891)"/>
          <path id="Path_9048" data-name="Path 9048" d="M142,61.04l1.218,1.344-.586.437-.908-1.6-.9,1.6-.586-.437,1.207-1.344-1.781-.368.218-.7,1.678.736-.207-1.815h.736l-.2,1.815,1.678-.724.218.7Z" transform="translate(-130.588 -58.891)"/>
          <path id="Path_9049" data-name="Path 9049" d="M152.463,61.04l1.218,1.344-.586.437-.908-1.6-.9,1.6-.586-.437,1.207-1.344-1.781-.368.218-.7,1.678.736-.207-1.815h.736l-.2,1.815,1.678-.724.218.7Z" transform="translate(-136.517 -58.891)"/>
          <path id="Path_9050" data-name="Path 9050" d="M162.931,61.04l1.218,1.344-.586.437-.908-1.6-.9,1.6-.586-.437,1.206-1.344-1.781-.368.218-.7,1.678.736-.207-1.815h.736l-.2,1.815,1.678-.724.218.7Z" transform="translate(-142.448 -58.891)"/>
          <path id="Path_9051" data-name="Path 9051" d="M173.4,61.04l1.218,1.344-.586.437-.908-1.6-.9,1.6-.586-.437,1.207-1.344-1.781-.368.218-.7,1.678.736-.207-1.815h.736l-.2,1.815,1.678-.724.218.7Z" transform="translate(-148.377 -58.891)"/>
          <path id="Path_9052" data-name="Path 9052" d="M183.866,61.04l1.218,1.344-.586.437-.908-1.6-.9,1.6-.586-.437,1.206-1.344-1.781-.368.218-.7,1.678.736-.207-1.815h.736l-.2,1.815,1.678-.724.218.7Z" transform="translate(-154.307 -58.891)"/>
          <path id="Path_9053" data-name="Path 9053" d="M194.333,61.04l1.218,1.344-.586.437-.908-1.6-.9,1.6-.586-.437,1.206-1.344L192,60.672l.218-.7,1.678.736-.207-1.815h.736l-.2,1.815,1.678-.724.218.7Z" transform="translate(-160.237 -58.891)"/>
        </g>
      </g>
      <g id="Group_7093" data-name="Group 7093" transform="translate(0 65.213)">
        <path id="Path_9054" data-name="Path 9054" d="M69.577,223.29a1.809,1.809,0,0,0-1.49-1.044H67.1v-.881a5.34,5.34,0,0,0,1.156-3.37c0-2.211-1.33-4-2.972-4s-2.972,1.792-2.972,4a5.4,5.4,0,0,0,1.073,3.274v.977H62.075a1.857,1.857,0,0,0-1.528,1.044l-1.781,3H71.314Z" transform="translate(-52.936 -208.82)" fill="none" stroke="#000" stroke-miterlimit="10" stroke-width="1" opacity="0.3"/>
        <circle id="Ellipse_265" data-name="Ellipse 265" cx="9.328" cy="9.328" r="9.328" transform="translate(0 17.236) rotate(-67.5)" fill="none" stroke="#000" stroke-miterlimit="10" stroke-width="1" opacity="0.3"/>
      </g>
    </g>
    <g id="Arrows" transform="translate(84.665 48.266)">
      <g id="Group_7094" data-name="Group 7094" opacity="0.2">
        <path id="Path_9055" data-name="Path 9055" d="M190.845,182.69A52.705,52.705,0,0,1,227.062,85l-1.346,4.509,14.98-3.565-10.577-11.19-1.284,4.3a58.888,58.888,0,0,0-39.369,109.909l-3.726-6.174Z" transform="translate(-157.572 -74.751)"/>
        <path id="Path_9056" data-name="Path 9056" d="M277.489,91.236l4.627,4.9-5.683,1.352a52.714,52.714,0,0,1-35.938,98.947l1.83-3.317-15.4.3,7.956,13.183,2.564-4.647A58.893,58.893,0,0,0,277.489,91.236Z" transform="translate(-196.864 -84.09)"/>
      </g>
    </g>
    <g id="Device_2" data-name="Device 2" transform="translate(168.791 39.805)">
      <g id="Group_7114" data-name="Group 7114">
        <g id="Group_7112" data-name="Group 7112">
          <g id="Group_7109" data-name="Group 7109">
            <path id="Path_9057" data-name="Path 9057" d="M398.315,63.188l-9.927-1.894-.017.034c-.5,1-1.3,1.559-2.052,1.416l-.431-.082c-.749-.143-1.294-.959-1.386-2.073l0-.038-9.927-1.894a5.1,5.1,0,0,0-5.961,4.051l-12.876,65.332a2.925,2.925,0,0,0,2.324,3.421l28.01,5.345a2.924,2.924,0,0,0,3.42-2.324l12.876-65.332A5.1,5.1,0,0,0,398.315,63.188Z" transform="translate(-353.928 -57.121)" fill="#009788" stroke="#263238" stroke-linecap="round" stroke-linejoin="round" stroke-width="1"/>
            <path id="Path_9058" data-name="Path 9058" d="M418.618,70.608l.278-1.459a5.1,5.1,0,0,0-4.051-5.961l-9.927-1.894-.017.034c-.5,1-1.3,1.559-2.052,1.416l-.431-.082c-.749-.143-1.294-.959-1.386-2.073l0-.038L391.1,58.657a5.1,5.1,0,0,0-5.961,4.051l-.278,1.458Z" transform="translate(-370.46 -57.121)" fill="#fff" stroke="#263238" stroke-linecap="round" stroke-linejoin="round" stroke-width="1"/>
            <g id="Group_7096" data-name="Group 7096">
              <g id="Group_7095" data-name="Group 7095">
                <path id="Path_9059" data-name="Path 9059" d="M397.619,89.64,398.83,83.3l-.574-.11,3.609-16.77a5.1,5.1,0,0,0-4.051-5.961l-26.889-5.131a5.1,5.1,0,0,0-5.961,4.051L351.728,126.6a5.1,5.1,0,0,0,4.051,5.961l26.889,5.131a5.1,5.1,0,0,0,5.961-4.051l7.385-38.7.574.109L397.3,91.3l-.574-.11.316-1.658Zm-9.882,40.121a5.1,5.1,0,0,1-5.961,4.051l-23.743-4.531a5.1,5.1,0,0,1-4.051-5.961l12.336-62.5a5.1,5.1,0,0,1,5.961-4.051l9.927,1.894,0,.038c.092,1.114.637,1.929,1.386,2.073l.431.082c.749.143,1.557-.414,2.052-1.416l.017-.034,9.927,1.894a5.1,5.1,0,0,1,4.051,5.961Z" transform="translate(-351.636 -55.233)" fill="#707070" stroke="#263238" stroke-linecap="round" stroke-linejoin="round" stroke-width="1"/>
                <path id="Path_9060" data-name="Path 9060" d="M397.8,62.091l-25.135-4.8a5.4,5.4,0,0,0-6.316,4.292l-12.86,65.245a5.4,5.4,0,0,0,4.292,6.316l25.135,4.8a5.4,5.4,0,0,0,6.316-4.292l12.86-65.245A5.4,5.4,0,0,0,397.8,62.091Zm-9.068,68.783a5.1,5.1,0,0,1-5.961,4.051l-23.743-4.531a5.1,5.1,0,0,1-4.051-5.961l12.336-62.5a5.1,5.1,0,0,1,5.961-4.051l9.927,1.894,0,.038c.092,1.114.637,1.929,1.386,2.073l.431.082c.749.143,1.557-.414,2.052-1.416l.017-.034,9.927,1.894a5.1,5.1,0,0,1,4.051,5.961Z" transform="translate(-352.633 -56.346)" fill="#263238" stroke="#263238" stroke-linecap="round" stroke-linejoin="round" stroke-width="1"/>
              </g>
              <path id="Path_9061" data-name="Path 9061" d="M426.144,63.974a.479.479,0,1,0-.56.381A.479.479,0,0,0,426.144,63.974Z" transform="translate(-393.308 -59.863)" fill="#707070"/>
            </g>
            <g id="Group_7108" data-name="Group 7108" transform="translate(17.31 2.718)">
              <g id="Group_7107" data-name="Group 7107">
                <g id="Group_7097" data-name="Group 7097">
                  <path id="Path_9062" data-name="Path 9062" d="M392.506,61.98c-.091.476-.657.545-.729.907l0,.025.518.1-.03.16-.692-.132.026-.135c.1-.509.65-.506.735-.951.031-.162-.007-.258-.137-.283s-.2.057-.229.2l-.026.14-.164-.032.024-.128c.046-.241.187-.38.43-.333S392.552,61.739,392.506,61.98Z" transform="translate(-391.568 -61.504)" fill="#263238"/>
                  <path id="Path_9063" data-name="Path 9063" d="M394.577,62.357l-.008.041a.379.379,0,0,0-.124.651l-.023.122c-.046.241-.189.377-.432.331s-.324-.225-.278-.466l.021-.108.164.031-.023.119c-.027.142.015.239.141.263s.2-.048.231-.208l.023-.122c.029-.156-.022-.242-.154-.272l-.095-.018.03-.158.1.02a.193.193,0,0,0,.231-.18l.013-.072c.031-.162-.01-.256-.138-.28s-.2.052-.228.194l-.016.081-.164-.031.013-.072c.046-.241.189-.375.43-.329A.347.347,0,0,1,394.577,62.357Z" transform="translate(-392.776 -61.719)" fill="#263238"/>
                  <path id="Path_9064" data-name="Path 9064" d="M395.967,63.36l-.042.218-.169-.033.042-.218Zm-.164.858-.042.218-.169-.032.042-.219Z" transform="translate(-393.848 -62.537)" fill="#263238"/>
                  <path id="Path_9065" data-name="Path 9065" d="M396.823,63.014a.258.258,0,0,1,.26-.086c.2.039.264.2.222.43l-.059.309c-.046.241-.191.377-.432.331s-.324-.225-.277-.466l.02-.106.164.031-.022.117c-.027.142.015.239.141.263s.2-.051.228-.192l.058-.306c.027-.142-.015-.239-.141-.263a.173.173,0,0,0-.21.135l-.007.036-.164-.031.21-.868.622.118-.03.158-.464-.088Z" transform="translate(-394.375 -61.981)" fill="#263238"/>
                  <path id="Path_9066" data-name="Path 9066" d="M399.412,63.279l-.005.029-.165-.031.008-.041c.027-.142-.016-.236-.144-.261s-.208.049-.24.218l-.068.354a.259.259,0,0,1,.287-.121c.2.039.265.2.222.43l-.046.239a.37.37,0,1,1-.724-.138l.153-.8c.048-.25.19-.384.44-.336A.345.345,0,0,1,399.412,63.279Zm-.655.487-.045.236c-.027.142.015.239.143.264s.2-.05.231-.192l.045-.237c.027-.142-.017-.239-.144-.263S398.784,63.624,398.757,63.766Z" transform="translate(-395.51 -62.242)" fill="#263238"/>
                </g>
                <g id="Group_7106" data-name="Group 7106" transform="translate(20.451 3.99)">
                  <rect id="Rectangle_1793" data-name="Rectangle 1793" width="0.453" height="1.133" transform="translate(0.213 0.317) rotate(10.807)" fill="#263238"/>
                  <rect id="Rectangle_1794" data-name="Rectangle 1794" width="0.453" height="1.361" transform="translate(0.849 0.207) rotate(10.802)" fill="#263238"/>
                  <rect id="Rectangle_1795" data-name="Rectangle 1795" width="0.453" height="1.522" transform="translate(1.473 0.162) rotate(10.802)" fill="#263238"/>
                  <rect id="Rectangle_1796" data-name="Rectangle 1796" width="0.453" height="1.802" transform="matrix(0.982, 0.187, -0.187, 0.982, 2.119, 0)" fill="#263238"/>
                  <g id="Group_7101" data-name="Group 7101" transform="translate(5.072 0.734)">
                    <g id="Group_7098" data-name="Group 7098">
                      <path id="Path_9067" data-name="Path 9067" d="M453.117,74.544l-2.672-.51.312-1.633,2.672.51Zm-2.5-.63,2.375.453.255-1.336-2.375-.453Z" transform="translate(-450.445 -72.401)" fill="#263238"/>
                    </g>
                    <g id="Group_7099" data-name="Group 7099" transform="translate(0.43 0.381)">
                      <rect id="Rectangle_1797" data-name="Rectangle 1797" width="1.436" height="1.031" transform="translate(0.193 0) rotate(10.803)" fill="#263238"/>
                    </g>
                    <g id="Group_7100" data-name="Group 7100" transform="translate(2.699 1.116)">
                      <rect id="Rectangle_1798" data-name="Rectangle 1798" width="0.342" height="0.392" transform="translate(0.073 0) rotate(10.8)" fill="#263238"/>
                    </g>
                  </g>
                  <g id="Group_7102" data-name="Group 7102" transform="translate(3.043 1.339)">
                    <path id="Path_9068" data-name="Path 9068" d="M446.881,74.283a.1.1,0,0,1-.048-.024.793.793,0,0,0-.916-.186.1.1,0,0,1-.1-.175.986.986,0,0,1,1.154.209.1.1,0,0,1-.087.176Z" transform="translate(-445.764 -73.799)" fill="#263238"/>
                  </g>
                  <g id="Group_7103" data-name="Group 7103" transform="translate(2.905 0.937)">
                    <path id="Path_9069" data-name="Path 9069" d="M446.967,73.46a.1.1,0,0,1-.049-.024,1.146,1.146,0,0,0-1.318-.263.1.1,0,1,1-.1-.175,1.353,1.353,0,0,1,1.556.286.1.1,0,0,1-.086.176Z" transform="translate(-445.447 -72.869)" fill="#263238"/>
                  </g>
                  <g id="Group_7104" data-name="Group 7104" transform="translate(2.797 0.484)">
                    <path id="Path_9070" data-name="Path 9070" d="M447.082,72.515a.1.1,0,0,1-.048-.024,1.449,1.449,0,0,0-1.684-.332.1.1,0,0,1-.1-.175,1.67,1.67,0,0,1,1.922.355.1.1,0,0,1-.087.176Z" transform="translate(-445.197 -71.825)" fill="#263238"/>
                  </g>
                  <g id="Group_7105" data-name="Group 7105" transform="translate(3.322 1.631)">
                    <path id="Path_9071" data-name="Path 9071" d="M446.914,74.775a.255.255,0,1,1-.2-.3A.255.255,0,0,1,446.914,74.775Z" transform="translate(-446.409 -74.472)" fill="#263238"/>
                  </g>
                </g>
              </g>
            </g>
          </g>
          <rect id="Rectangle_1799" data-name="Rectangle 1799" width="28.577" height="24.73" rx="5.338" transform="translate(13.582 26.599) rotate(10.804)" fill="#fff" stroke="#263238" stroke-miterlimit="10" stroke-width="1"/>
          <g id="Group_7110" data-name="Group 7110" transform="translate(19.9 21.767)">
            <path id="Path_9072" data-name="Path 9072" d="M397.844,107.762l-.3-2.316.393.075.211,1.77.852-1.567.358.068-1.138,2.04-.232,1.218-.374-.071Z" transform="translate(-397.542 -105.446)" fill="#263238"/>
            <path id="Path_9073" data-name="Path 9073" d="M401.291,107.263a.8.8,0,1,1,1.558.3l-.336,1.757a.8.8,0,1,1-1.557-.3Zm.035,1.847c-.059.311.037.515.309.567s.437-.1.5-.413l.342-1.8c.058-.306-.033-.514-.309-.567s-.438.107-.5.413Z" transform="translate(-399.462 -106.065)" fill="#263238"/>
            <path id="Path_9074" data-name="Path 9074" d="M405.713,109.825c-.058.306.028.513.3.566s.428-.109.487-.415l.5-2.6.354.068-.492,2.576c-.1.515-.4.813-.926.714s-.691-.489-.593-1l.492-2.576.373.071Z" transform="translate(-401.947 -106.416)" fill="#263238"/>
            <path id="Path_9075" data-name="Path 9075" d="M410.789,108.135a.684.684,0,0,1,.609.921l-.053.277c-.072.374-.247.582-.556.618a.647.647,0,0,1,.292.79l-.1.529a.857.857,0,0,0-.01.42l-.383-.073a.9.9,0,0,1,.016-.424l.1-.534c.073-.383-.083-.539-.4-.6l-.267-.051-.277,1.45-.378-.072.648-3.4Zm-.4,1.583c.3.058.5-.005.569-.374l.062-.325c.059-.306-.022-.487-.3-.541l-.369-.07-.24,1.257Z" transform="translate(-404.25 -106.888)" fill="#263238"/>
            <path id="Path_9076" data-name="Path 9076" d="M417.655,110.384l-.058.306-.359-.068.062-.325c.058-.306-.028-.513-.3-.566s-.433.109-.492.414l-.342,1.8c-.059.306.033.514.3.566s.433-.108.491-.414l.085-.441.359.068-.081.422c-.1.515-.405.808-.93.708s-.7-.485-.6-1l.336-1.757c.1-.514.405-.808.924-.709A.749.749,0,0,1,417.655,110.384Z" transform="translate(-407.866 -107.666)" fill="#263238"/>
            <path id="Path_9077" data-name="Path 9077" d="M420.383,110.907a.8.8,0,1,1,1.558.3l-.335,1.756a.8.8,0,1,1-1.558-.3Zm.035,1.847c-.059.31.038.515.309.567s.437-.1.5-.413l.342-1.8c.059-.306-.033-.514-.309-.567s-.438.108-.5.414Z" transform="translate(-410.278 -108.129)" fill="#263238"/>
            <path id="Path_9078" data-name="Path 9078" d="M425.587,110.959a.739.739,0,0,1,.61.991l-.327,1.713c-.1.519-.4.793-.932.692l-.8-.152.648-3.4ZM425,114.01c.272.052.435-.093.494-.4l.333-1.747c.059-.311-.039-.505-.316-.558l-.407-.078-.517,2.707Z" transform="translate(-412.612 -108.483)" fill="#263238"/>
            <path id="Path_9079" data-name="Path 9079" d="M430.147,113.388l-.065.34-.83-.158-.231,1.208,1.019.195-.066.345-1.4-.267.648-3.4,1.4.267-.066.345-1.019-.195-.221,1.16Z" transform="translate(-415.124 -108.963)" fill="#263238"/>
          </g>
          <g id="Group_7111" data-name="Group 7111" transform="translate(16.372 35.132)">
            <path id="Path_9080" data-name="Path 9080" d="M390.623,138.99a1.05,1.05,0,0,1,1.053-.349c.824.157,1.075.831.9,1.747l-.239,1.255c-.187.979-.775,1.531-1.755,1.344s-1.315-.915-1.128-1.894l.082-.43.668.127-.091.476c-.11.577.062.97.574,1.068s.817-.2.927-.781l.238-1.245c.11-.577-.061-.97-.574-1.068a.7.7,0,0,0-.854.548l-.028.147-.668-.127.854-3.528,2.527.482-.122.641-1.886-.36Z" transform="translate(-389.404 -136.278)" fill="#263238"/>
            <path id="Path_9081" data-name="Path 9081" d="M401.139,140.069l-.023.119-.668-.128.032-.165c.11-.577-.063-.961-.585-1.06-.54-.1-.844.2-.975.886l-.274,1.437a1.05,1.05,0,0,1,1.166-.489c.824.157,1.076.822.9,1.747l-.185.971a1.5,1.5,0,1,1-2.939-.561l.624-3.268c.194-1.016.772-1.561,1.789-1.366A1.4,1.4,0,0,1,401.139,140.069Zm-2.664,1.977-.183.962c-.11.577.062.97.583,1.069s.826-.2.936-.779l.183-.962c.11-.577-.071-.971-.583-1.069S398.585,141.47,398.475,142.046Z" transform="translate(-394.012 -137.34)" fill="#263238"/>
            <path id="Path_9082" data-name="Path 9082" d="M409.354,141.636l-.023.119-.668-.127.032-.165c.11-.577-.063-.961-.585-1.06-.54-.1-.844.2-.976.886l-.274,1.437a1.051,1.051,0,0,1,1.166-.489c.824.157,1.076.822.9,1.747l-.185.97a1.5,1.5,0,1,1-2.939-.561l.624-3.268c.194-1.016.772-1.561,1.788-1.367A1.4,1.4,0,0,1,409.354,141.636Zm-2.664,1.978-.183.961c-.11.577.062.97.583,1.07s.826-.2.936-.78l.183-.961c.11-.577-.071-.972-.583-1.069S406.8,143.037,406.69,143.614Z" transform="translate(-398.666 -138.228)" fill="#263238"/>
            <path id="Path_9083" data-name="Path 9083" d="M417.551,143.209l-.623,3.268c-.194,1.016-.774,1.57-1.8,1.374a1.414,1.414,0,0,1-1.139-1.887l.023-.119.668.128-.031.165c-.11.577.072.963.585,1.06.549.1.854-.2.983-.875l.274-1.437a1.043,1.043,0,0,1-1.164.48c-.824-.157-1.078-.813-.9-1.737l.187-.979a1.5,1.5,0,1,1,2.938.561Zm-2.226-.463-.183.961c-.11.577.071.972.583,1.069s.826-.2.936-.779l.183-.962c.112-.586-.062-.97-.583-1.069S415.436,142.16,415.325,142.746Z" transform="translate(-403.304 -139.111)" fill="#263238"/>
            <path id="Path_9084" data-name="Path 9084" d="M425.8,144.764l-.039.2a1.286,1.286,0,0,1-.984,1.179,1.322,1.322,0,0,1,.474,1.494l-.091.476a1.54,1.54,0,1,1-3.021-.576l.091-.476a1.316,1.316,0,0,1,1-1.213,1.276,1.276,0,0,1-.49-1.46l.039-.2a1.54,1.54,0,1,1,3.021.577Zm-2.319-.424-.06.311c-.119.622.131.955.635,1.051s.858-.121.977-.743l.059-.312c.126-.659-.119-1.019-.622-1.114S423.606,143.682,423.481,144.341Zm-.529,2.774-.1.54c-.126.659.107,1.026.62,1.124s.856-.16.991-.817l.1-.54c.119-.623-.1-.977-.629-1.078S423.07,146.492,422.951,147.115Z" transform="translate(-407.923 -140.003)" fill="#263238"/>
          </g>
          <line id="Line_155" data-name="Line 155" x2="22.133" y2="4.224" transform="translate(11.155 56.907)" fill="none" stroke="#263238" stroke-miterlimit="10" stroke-width="1"/>
          <line id="Line_156" data-name="Line 156" x2="22.133" y2="4.224" transform="translate(10.331 61.225)" fill="none" stroke="#263238" stroke-miterlimit="10" stroke-width="1"/>
        </g>
        <g id="Group_7113" data-name="Group 7113" transform="translate(44.574 39.813)">
          <line id="Line_157" data-name="Line 157" y1="0.824" x2="5.354" transform="translate(2.471)" fill="none" stroke="#263238" stroke-miterlimit="10" stroke-width="1"/>
          <line id="Line_158" data-name="Line 158" x2="2.883" y2="0.824" transform="translate(1.647 7.001)" fill="none" stroke="#263238" stroke-miterlimit="10" stroke-width="1"/>
          <line id="Line_159" data-name="Line 159" x2="5.354" y2="3.707" transform="translate(0 12.355)" fill="none" stroke="#263238" stroke-miterlimit="10" stroke-width="1"/>
        </g>
      </g>
    </g>
    <g id="Device_1" data-name="Device 1" transform="translate(64.638 72.392)">
      <g id="Group_7121" data-name="Group 7121">
        <path id="Path_9085" data-name="Path 9085" d="M211.252,148.74a1.049,1.049,0,0,0,1.049-1.049v-8.666a1.049,1.049,0,0,0-1.049-1.049H211.2v-3.39a4.181,4.181,0,0,0-4.181-4.181H115.555a4.181,4.181,0,0,0-4.181,4.181v63.188a4.181,4.181,0,0,0,4.181,4.181h91.467a4.181,4.181,0,0,0,4.181-4.181V175.1h.047a1.049,1.049,0,0,0,1.049-1.049v-8.666a1.049,1.049,0,0,0-1.049-1.049H211.2v-1.095h.047A1.049,1.049,0,0,0,212.3,162.2v-8.666a1.049,1.049,0,0,0-1.049-1.049H211.2v-3.74Z" transform="translate(-111.374 -130.404)" fill="#263238"/>
        <g id="Group_7115" data-name="Group 7115" transform="translate(3.884 2.788)">
          <path id="Path_9128" data-name="Path 9128" d="M0,0H92.372V65.976H0Z" fill="#009788" stroke="#263238" stroke-width="1"/>
        </g>
        <g id="Group_7120" data-name="Group 7120" transform="translate(24.241 11.269)">
          <rect id="Rectangle_1801" data-name="Rectangle 1801" width="51.659" height="41.492" fill="#e3e3e3" stroke="#263238" stroke-miterlimit="10" stroke-width="1"/>
          <g id="Group_7116" data-name="Group 7116" transform="translate(18.512 28.817)">
            <path id="Path_9086" data-name="Path 9086" d="M210.921,224.085v.26h-.634v.923h.779v.263H210v-2.6h1.068v.263h-.779v.886Z" transform="translate(-209.998 -222.91)" fill="#b2b2b2"/>
            <path id="Path_9087" data-name="Path 9087" d="M213.327,225.531h-.26v-2.6h.367l.6,1.876v-1.876h.256v2.6h-.3l-.664-2.1Z" transform="translate(-211.737 -222.91)" fill="#b2b2b2"/>
            <path id="Path_9088" data-name="Path 9088" d="M216.812,225.531V223.2h-.478v-.263h1.242v.263H217.1v2.332Z" transform="translate(-213.587 -222.91)" fill="#b2b2b2"/>
            <path id="Path_9089" data-name="Path 9089" d="M220.574,224.085v.26h-.634v.923h.779v.263h-1.068v-2.6h1.068v.263h-.779v.886Z" transform="translate(-215.466 -222.91)" fill="#b2b2b2"/>
            <path id="Path_9090" data-name="Path 9090" d="M223.307,222.936c.408,0,.579.208.579.593v.211c0,.285-.1.463-.323.534.238.07.326.263.326.541v.4a.65.65,0,0,0,.052.311h-.293a.68.68,0,0,1-.048-.315v-.407c0-.293-.137-.386-.378-.386h-.2v1.108h-.289v-2.6Zm-.074,1.223c.23,0,.367-.074.367-.355v-.249c0-.234-.085-.356-.3-.356h-.282v.96Z" transform="translate(-217.21 -222.91)" fill="#b2b2b2"/>
            <path id="Path_9091" data-name="Path 9091" d="M228.54,223.529v.233h-.274v-.248c0-.234-.093-.374-.3-.374s-.3.14-.3.374v1.372c0,.234.1.375.3.375s.3-.141.3-.375v-.337h.274v.323c0,.393-.186.652-.586.652s-.582-.26-.582-.652v-1.342c0-.393.186-.653.582-.653S228.54,223.136,228.54,223.529Z" transform="translate(-219.84 -222.876)" fill="#b2b2b2"/>
            <path id="Path_9092" data-name="Path 9092" d="M230.621,223.529c0-.4.2-.653.593-.653s.6.256.6.653v1.342c0,.393-.2.652-.6.652s-.593-.26-.593-.652Zm.286,1.357c0,.237.1.375.307.375s.308-.137.308-.375v-1.372c0-.234-.1-.374-.308-.374s-.307.14-.307.374Z" transform="translate(-221.681 -222.876)" fill="#b2b2b2"/>
            <path id="Path_9093" data-name="Path 9093" d="M234.606,222.936c.4,0,.59.245.59.645v1.309c0,.4-.186.642-.59.642H234v-2.6Zm0,2.332c.208,0,.308-.13.308-.367v-1.335c0-.237-.1-.367-.311-.367h-.311v2.069Z" transform="translate(-223.594 -222.91)" fill="#b2b2b2"/>
            <path id="Path_9094" data-name="Path 9094" d="M238.307,224.085v.26h-.634v.923h.779v.263h-1.068v-2.6h1.068v.263h-.779v.886Z" transform="translate(-225.512 -222.91)" fill="#b2b2b2"/>
          </g>
          <rect id="Rectangle_1802" data-name="Rectangle 1802" width="43.593" height="4.919" transform="translate(3.988 13.704)" fill="#fff" stroke="#263238" stroke-miterlimit="10" stroke-width="1"/>
          <rect id="Rectangle_1803" data-name="Rectangle 1803" width="43.593" height="4.919" transform="translate(3.988 21.507)" fill="#fff" stroke="#263238" stroke-miterlimit="10" stroke-width="1"/>
          <g id="Group_7117" data-name="Group 7117" transform="translate(12.3 32.604)">
            <rect id="Rectangle_1804" data-name="Rectangle 1804" width="4.116" height="4.919" transform="translate(15.528)" fill="#fff" stroke="#263238" stroke-miterlimit="10" stroke-width="1"/>
            <rect id="Rectangle_1805" data-name="Rectangle 1805" width="4.116" height="4.919" transform="translate(10.289)" fill="#fff" stroke="#263238" stroke-miterlimit="10" stroke-width="1"/>
            <rect id="Rectangle_1806" data-name="Rectangle 1806" width="4.116" height="4.919" transform="translate(5.051)" fill="#fff" stroke="#263238" stroke-miterlimit="10" stroke-width="1"/>
            <rect id="Rectangle_1807" data-name="Rectangle 1807" width="3.929" height="4.919" fill="#fff" stroke="#263238" stroke-miterlimit="10" stroke-width="1"/>
            <rect id="Rectangle_1808" data-name="Rectangle 1808" width="4.265" height="4.919" transform="translate(20.766)" fill="#fff" stroke="#263238" stroke-miterlimit="10" stroke-width="1"/>
          </g>
          <path id="Path_9095" data-name="Path 9095" d="M224.335,164.522v-.945a2.78,2.78,0,1,0-5.561,0v.945h-.052v5.229h5.665v-5.229Zm-2.613,2.874v.947h-.537V167.4a.716.716,0,1,1,.537,0Zm1.555-2.874h-3.445v-.945a1.722,1.722,0,1,1,3.445,0Z" transform="translate(-196.428 -158.891)" fill="#263238"/>
          <g id="Group_7118" data-name="Group 7118" transform="translate(18.748 14.752)">
            <path id="Path_9096" data-name="Path 9096" d="M210.826,192.475c0,.234.093.375.3.375s.3-.141.3-.375v-1.984h.271v1.969c0,.393-.182.656-.582.656s-.578-.264-.578-.656v-1.969h.285Z" transform="translate(-210.541 -190.465)" fill="#b2b2b2"/>
            <path id="Path_9097" data-name="Path 9097" d="M214.945,191.08v.071h-.274v-.085c0-.234-.089-.371-.3-.371s-.3.137-.3.367c0,.582.872.638.872,1.368,0,.393-.189.649-.586.649s-.582-.256-.582-.649v-.148h.271v.163c0,.234.1.371.3.371s.3-.137.3-.371c0-.578-.867-.634-.867-1.364,0-.4.185-.649.575-.649S214.945,190.687,214.945,191.08Z" transform="translate(-212.376 -190.431)" fill="#b2b2b2"/>
            <path id="Path_9098" data-name="Path 9098" d="M217.979,191.64v.26h-.634v.923h.779v.263h-1.068v-2.6h1.068v.264h-.779v.886Z" transform="translate(-214.232 -190.465)" fill="#b2b2b2"/>
            <path id="Path_9099" data-name="Path 9099" d="M220.712,190.491c.408,0,.579.208.579.593v.211c0,.286-.1.463-.323.534.238.07.326.263.326.541v.4a.65.65,0,0,0,.052.311h-.293a.679.679,0,0,1-.048-.315v-.407c0-.293-.137-.386-.378-.386h-.2v1.108h-.289v-2.6Zm-.074,1.224c.23,0,.367-.075.367-.356v-.248c0-.234-.085-.356-.3-.356h-.282v.96Z" transform="translate(-215.975 -190.465)" fill="#b2b2b2"/>
            <path id="Path_9100" data-name="Path 9100" d="M225.079,193.086h-.259v-2.6h.367l.6,1.876v-1.876h.256v2.6h-.3l-.664-2.1Z" transform="translate(-218.63 -190.465)" fill="#b2b2b2"/>
            <path id="Path_9101" data-name="Path 9101" d="M228.521,192.564l-.1.523h-.267l.5-2.6h.419l.5,2.6h-.289l-.1-.523Zm.037-.248h.579l-.293-1.5Z" transform="translate(-220.519 -190.465)" fill="#b2b2b2"/>
            <path id="Path_9102" data-name="Path 9102" d="M232.885,193.083h-.278l-.43-2.065v2.069h-.252v-2.6h.4l.427,2.073.411-2.073h.4v2.6H233.3V191Z" transform="translate(-222.655 -190.465)" fill="#b2b2b2"/>
            <path id="Path_9103" data-name="Path 9103" d="M237.328,191.64v.26h-.634v.923h.778v.263H236.4v-2.6h1.068v.264h-.778v.886Z" transform="translate(-225.193 -190.465)" fill="#b2b2b2"/>
          </g>
          <g id="Group_7119" data-name="Group 7119" transform="translate(18.677 23.026)">
            <path id="Path_9104" data-name="Path 9104" d="M211.131,210.211l.393.434-.189.141-.293-.515-.289.515-.189-.141.389-.434-.575-.118.071-.226.541.237-.067-.586h.238l-.063.586.541-.233.071.226Z" transform="translate(-210.378 -209.518)" fill="#b2b2b2"/>
            <path id="Path_9105" data-name="Path 9105" d="M214.508,210.211l.393.434-.189.141-.293-.515-.289.515-.189-.141.389-.434-.575-.118.071-.226.541.237-.067-.586h.238l-.063.586.541-.233.071.226Z" transform="translate(-212.291 -209.518)" fill="#b2b2b2"/>
            <path id="Path_9106" data-name="Path 9106" d="M217.886,210.211l.393.434-.189.141-.293-.515-.289.515-.189-.141.389-.434-.575-.118.07-.226.541.237-.067-.586h.237l-.063.586.541-.233.07.226Z" transform="translate(-214.205 -209.518)" fill="#b2b2b2"/>
            <path id="Path_9107" data-name="Path 9107" d="M221.263,210.211l.393.434-.189.141-.293-.515-.289.515-.189-.141.389-.434-.575-.118.07-.226.541.237-.067-.586h.238l-.063.586.541-.233.07.226Z" transform="translate(-216.118 -209.518)" fill="#b2b2b2"/>
            <path id="Path_9108" data-name="Path 9108" d="M224.641,210.211l.393.434-.189.141-.293-.515-.289.515-.189-.141.389-.434-.574-.118.07-.226.541.237-.067-.586h.237l-.063.586.541-.233.07.226Z" transform="translate(-218.031 -209.518)" fill="#b2b2b2"/>
            <path id="Path_9109" data-name="Path 9109" d="M228.018,210.211l.393.434-.189.141-.293-.515-.29.515-.189-.141.389-.434-.574-.118.07-.226.541.237-.067-.586h.237l-.063.586.541-.233.07.226Z" transform="translate(-219.945 -209.518)" fill="#b2b2b2"/>
            <path id="Path_9110" data-name="Path 9110" d="M231.395,210.211l.393.434-.189.141-.293-.515-.289.515-.189-.141.389-.434-.575-.118.071-.226.541.237-.067-.586h.238l-.063.586.541-.233.071.226Z" transform="translate(-221.858 -209.518)" fill="#b2b2b2"/>
            <path id="Path_9111" data-name="Path 9111" d="M234.772,210.211l.393.434-.189.141-.293-.515-.289.515-.189-.141.389-.434-.575-.118.071-.226.541.237-.067-.586h.237l-.063.586.541-.233.07.226Z" transform="translate(-223.771 -209.518)" fill="#b2b2b2"/>
          </g>
        </g>
      </g>
    </g>
    <g id="Mug" transform="translate(90.765 172.076)">
      <g id="Group_7125" data-name="Group 7125">
        <g id="Group_7122" data-name="Group 7122">
          <ellipse id="Ellipse_266" data-name="Ellipse 266" cx="27.73" cy="26.058" rx="27.73" ry="26.058" transform="translate(0.582 1.357)" fill="#263238"/>
          <ellipse id="Ellipse_267" data-name="Ellipse 267" cx="27.73" cy="26.058" rx="27.73" ry="26.058" fill="#fff" stroke="#263238" stroke-miterlimit="10" stroke-width="1"/>
          <ellipse id="Ellipse_268" data-name="Ellipse 268" cx="23.935" cy="22.492" rx="23.935" ry="22.492" transform="translate(3.794 3.566)" fill="#fff" stroke="#263238" stroke-miterlimit="10" stroke-width="1"/>
        </g>
        <path id="Path_9112" data-name="Path 9112" d="M228.178,385.535c-9.606,0-17.394,9.786-17.394,21.858,0,7.788,3.244,14.619,8.123,18.491.806.068,1.62.108,2.445.108a27.558,27.558,0,0,0,23.606-12.842,27.158,27.158,0,0,0,.614-5.757C245.572,395.321,237.785,385.535,228.178,385.535Z" transform="translate(-193.818 -374.622)" fill="#263238"/>
        <g id="Group_7123" data-name="Group 7123" transform="translate(5.843 7.887)">
          <rect id="Rectangle_1809" data-name="Rectangle 1809" width="11.329" height="2.71" transform="translate(0 15.028)" fill="#fff" stroke="#263238" stroke-miterlimit="10" stroke-width="1"/>
          <ellipse id="Ellipse_269" data-name="Ellipse 269" cx="17.277" cy="16.235" rx="17.277" ry="16.235" transform="translate(8.604)" fill="#fff" stroke="#263238" stroke-miterlimit="10" stroke-width="1"/>
          <ellipse id="Ellipse_270" data-name="Ellipse 270" cx="14.424" cy="13.554" rx="14.424" ry="13.554" transform="translate(11.458 2.681)" fill="#263238" stroke="#263238" stroke-miterlimit="10" stroke-width="1"/>
        </g>
        <g id="Group_7124" data-name="Group 7124" transform="translate(24.302 2.189)">
          <path id="Path_9113" data-name="Path 9113" d="M229.086,374.913a5.474,5.474,0,0,0-.322-.662c-1.471-2.559-1.287-5.817-.184-8.842" transform="translate(-227.707 -365.409)" fill="none" stroke="#263238" stroke-miterlimit="10" stroke-width="1"/>
          <path id="Path_9114" data-name="Path 9114" d="M231.117,392.719a9.729,9.729,0,0,0-.229-5.388" transform="translate(-229.509 -377.828)" fill="none" stroke="#fff" stroke-miterlimit="10" stroke-width="1"/>
          <path id="Path_9115" data-name="Path 9115" d="M241.91,374.251c-1.471-2.559-1.287-5.817-.184-8.842" transform="translate(-235.154 -365.409)" fill="none" stroke="#263238" stroke-miterlimit="10" stroke-width="1"/>
          <path id="Path_9116" data-name="Path 9116" d="M243.843,391.854s.919-3.49-.551-6.049" transform="translate(-236.536 -376.963)" fill="none" stroke="#fff" stroke-miterlimit="10" stroke-width="1"/>
          <path id="Path_9117" data-name="Path 9117" d="M255.239,374.6q-.084-.175-.181-.345c-1.471-2.559-1.287-5.817-.184-8.842" transform="translate(-242.602 -365.409)" fill="none" stroke="#263238" stroke-miterlimit="10" stroke-width="1"/>
          <path id="Path_9118" data-name="Path 9118" d="M257.227,392.3a9.473,9.473,0,0,0-.37-5.7" transform="translate(-244.22 -377.414)" fill="none" stroke="#fff" stroke-miterlimit="10" stroke-width="1"/>
        </g>
      </g>
    </g>
    <g id="Right_Hand" data-name="Right Hand" transform="translate(123.63 117.364)">
      <g id="Group_7130" data-name="Group 7130">
        <path id="Path_9119" data-name="Path 9119" d="M306.975,293.36s-.451.025-1.259.112c-.766-2.6-3.061-10.291-4.569-14.265-1.832-4.829-4.329-11.656-5.994-14.486s-1.5-4.5-4.662-7.16-5.994-1.5-5.994-1.5-.5-2-3.663-3-7.493,1-7.493,1-.666-1.166-3.829-.833a5.508,5.508,0,0,0-4.329,3.164s-6.494-12.987-8.992-13.987a3.021,3.021,0,0,0-4,3.83c1,2.331,8.492,15.319,9.491,18.316s3.164,7.993,3.164,7.993-7.16-5.162-9.324-5.661-5.328-.833-7.16,1.166,2.5,2.5,5.994,5.661a78.262,78.262,0,0,1,11.822,15.152c2.664,4.662,8.325,5.495,10.823,8.159,1.758,1.875,4.257,4.491,5.583,5.877a15.1,15.1,0,0,0-1.254,1.45l5.495,13.487s1.165-1.832,5.827-5.495,19.149-8.159,19.149-8.159Z" transform="translate(-247.725 -238.699)" fill="#263238" stroke="#263238" stroke-miterlimit="10" stroke-width="1"/>
        <g id="Group_7129" data-name="Group 7129">
          <g id="Group_7127" data-name="Group 7127">
            <g id="Group_7126" data-name="Group 7126">
              <path id="Path_9120" data-name="Path 9120" d="M283.026,295.815s-4-4.162-6.494-6.827-8.159-3.5-10.823-8.159a78.245,78.245,0,0,0-11.822-15.152c-3.5-3.164-7.825-3.663-5.994-5.661s5-1.665,7.16-1.166,9.324,5.661,9.324,5.661-2.164-5-3.164-7.992-8.492-15.985-9.491-18.316a3.021,3.021,0,0,1,4-3.83c2.5,1,8.991,13.987,8.991,13.987a5.507,5.507,0,0,1,4.329-3.164c3.164-.333,3.83.833,3.83.833s4.329-2,7.492-1,3.664,3,3.664,3,2.83-1.166,5.994,1.5,3,4.329,4.662,7.16,4.163,9.657,5.994,14.487,4.829,15.152,4.829,15.152L284.025,297.98Z" transform="translate(-247.458 -234.147)" fill="#fff" stroke="#263238" stroke-miterlimit="10" stroke-width="1"/>
              <line id="Line_160" data-name="Line 160" x2="5.828" y2="8.658" transform="translate(17.252 14.213)" fill="none" stroke="#263238" stroke-miterlimit="10" stroke-width="1"/>
              <line id="Line_161" data-name="Line 161" x2="5.328" y2="8.325" transform="translate(25.411 11.882)" fill="none" stroke="#263238" stroke-miterlimit="10" stroke-width="1"/>
              <line id="Line_162" data-name="Line 162" x2="3.663" y2="6.494" transform="translate(36.567 13.88)" fill="none" stroke="#263238" stroke-miterlimit="10" stroke-width="1"/>
              <line id="Line_163" data-name="Line 163" x2="0.762" y2="2.209" transform="translate(19.488 37.813)" fill="none" stroke="#263238" stroke-miterlimit="10" stroke-width="1"/>
              <line id="Line_164" data-name="Line 164" x2="2.039" y2="5.913" transform="translate(16.919 30.364)" fill="none" stroke="#263238" stroke-miterlimit="10" stroke-width="1"/>
            </g>
            <line id="Line_165" data-name="Line 165" x2="1.332" y2="1.832" transform="translate(26.243 24.869)" fill="none" stroke="#263238" stroke-miterlimit="10" stroke-width="1"/>
            <line id="Line_166" data-name="Line 166" x2="1.499" y2="1.998" transform="translate(32.404 23.038)" fill="none" stroke="#263238" stroke-miterlimit="10" stroke-width="1"/>
            <line id="Line_167" data-name="Line 167" x2="0.999" y2="3.164" transform="translate(40.563 22.039)" fill="none" stroke="#263238" stroke-miterlimit="10" stroke-width="1"/>
          </g>
          <g id="Group_7128" data-name="Group 7128" transform="translate(33.403 51.178)">
            <path id="Path_9121" data-name="Path 9121" d="M324.514,363.2a25.135,25.135,0,0,1,11.655-7.992,57.82,57.82,0,0,1,13.987-3l4.829,10.823s-14.486,4.5-19.148,8.159-5.828,5.495-5.828,5.495Z" transform="translate(-324.514 -352.206)" fill="#fff" stroke="#263238" stroke-miterlimit="10" stroke-width="1"/>
            <path id="Path_9122" data-name="Path 9122" d="M343.7,412.747s-6.327-15.818-7.992-19.148,1-5,1-5,3.83-5.162,13.82-9.158,10.823-4.162,13.321-1.332,18.879,34.663,18.879,34.663" transform="translate(-330.544 -365.792)" fill="#fff" stroke="#263238" stroke-miterlimit="10" stroke-width="1"/>
          </g>
        </g>
      </g>
    </g>
    <g id="Left_Hand" data-name="Left Hand" transform="translate(28.911 131.132)">
      <g id="Group_7134" data-name="Group 7134">
        <path id="Path_9123" data-name="Path 9123" d="M90.809,336.141a18.1,18.1,0,0,1,7.653-7.6c5.39-2.75,8.893-3.933,14.051-9.02s13.659-9.631,17.164-10.258,4.668-2.135,3.158-3.855-5.631-1.815-9.3-.575-7.06,2.756-7.06,2.756c1.858-3.659,3.1-8.066,4.925-11.739,1.3-2.607,3.431-6.907,4.693-9.532.824-1.713,3.279-4.565,2.187-6.436s-3.723-.63-5.054,1.159c-2.115,2.843-12.463,18.442-12.463,18.442L116.66,287l3.989-8.445c.872-1.845,2.568-4.315,1.533-6.443a3.061,3.061,0,0,0-5.349-.325c-1.438,2.344-12.435,23.157-12.435,23.157s6.883-17.864,7.763-19.917c1.075-2.507.44-4.693-1.146-4.68-2.3.018-3.393,2.568-4.3,4.3l.5-.732c-2.154,2.872-3.6,6.645-5.4,9.762q-3.159,5.464-6.538,10.8a27.609,27.609,0,0,1,3.751-10.323c1.1-1.926,5.7-6.656,4.917-8.981-.676-2-5.719,1.76-8.652,5.866-1.6,2.238-5.788,8.34-6.94,12.632s-9.223,18.912-11.378,22.985a113.1,113.1,0,0,0-4.744,11.266Z" transform="translate(-53.474 -268.421)" fill="#263238" stroke="#263238" stroke-miterlimit="10" stroke-width="1"/>
        <path id="Path_9124" data-name="Path 9124" d="M89.508,400.806a25.137,25.137,0,0,0-12.126-7.258,57.813,57.813,0,0,0-14.145-2.129l-4.152,11.1s14.736,3.594,19.615,6.963,6.156,5.125,6.156,5.125Z" transform="translate(-46.025 -337.011)" fill="#263238" stroke="#263238" stroke-miterlimit="10" stroke-width="1"/>
        <g id="Group_7133" data-name="Group 7133">
          <g id="Group_7131" data-name="Group 7131" transform="translate(18.212)">
            <path id="Path_9125" data-name="Path 9125" d="M89.543,331.707a18.1,18.1,0,0,1,7.653-7.6c5.39-2.75,8.893-3.933,14.051-9.021s13.659-9.631,17.164-10.258,4.669-2.135,3.158-3.855-5.631-1.815-9.3-.575-7.06,2.757-7.06,2.757c1.858-3.66,3.1-8.066,4.925-11.74,1.3-2.607,3.431-6.907,4.693-9.532.824-1.713,3.279-4.566,2.187-6.436s-3.722-.63-5.053,1.159c-2.115,2.843-12.463,18.442-12.463,18.442l5.9-12.484,3.989-8.445c.871-1.845,2.568-4.315,1.532-6.443a3.061,3.061,0,0,0-5.349-.324c-1.438,2.344-12.435,23.156-12.435,23.156s6.883-17.863,7.763-19.916c1.075-2.507.44-4.693-1.145-4.68-2.3.018-3.393,2.569-4.3,4.3l.5-.732c-2.154,2.872-3.6,6.646-5.4,9.762q-3.158,5.464-6.538,10.8a27.6,27.6,0,0,1,3.75-10.323c1.1-1.926,5.7-6.656,4.917-8.981-.676-2-5.719,1.76-8.652,5.866-1.6,2.238-5.788,8.34-6.94,12.632s-9.223,18.912-11.378,22.985a113.057,113.057,0,0,0-4.743,11.266Z" transform="translate(-70.969 -265.909)" fill="#fff" stroke="#263238" stroke-miterlimit="10" stroke-width="1"/>
            <line id="Line_168" data-name="Line 168" x1="1.988" y2="4.017" transform="translate(30.174 24.597)" fill="none" stroke="#263238" stroke-miterlimit="10" stroke-width="1"/>
            <line id="Line_169" data-name="Line 169" x1="1.551" y2="2.011" transform="translate(36.977 29.137)" fill="none" stroke="#263238" stroke-miterlimit="10" stroke-width="1"/>
            <line id="Line_170" data-name="Line 170" x1="1.993" y2="2.903" transform="translate(42.246 37.244)" fill="none" stroke="#263238" stroke-miterlimit="10" stroke-width="1"/>
            <line id="Line_171" data-name="Line 171" x1="0.16" y2="1.727" transform="translate(33.771 35.336)" fill="none" stroke="#263238" stroke-miterlimit="10" stroke-width="1"/>
            <line id="Line_172" data-name="Line 172" x2="0.007" y2="1.67" transform="translate(28.963 32.182)" fill="none" stroke="#263238" stroke-miterlimit="10" stroke-width="1"/>
            <line id="Line_173" data-name="Line 173" x2="0.401" y2="2.838" transform="translate(21.655 28.703)" fill="none" stroke="#263238" stroke-miterlimit="10" stroke-width="1"/>
          </g>
          <g id="Group_7132" data-name="Group 7132" transform="translate(0 52.486)">
            <path id="Path_9126" data-name="Path 9126" d="M88.241,396.373a25.133,25.133,0,0,0-12.126-7.258,57.832,57.832,0,0,0-14.145-2.129l-4.152,11.1s14.736,3.594,19.615,6.963,6.155,5.125,6.155,5.125Z" transform="translate(-45.307 -386.985)" fill="#fff" stroke="#263238" stroke-miterlimit="10" stroke-width="1"/>
            <path id="Path_9127" data-name="Path 9127" d="M65.287,434.275s1.033-3.471,2.489-6.9-1.305-4.924-1.305-4.924-4.141-4.916-14.359-8.288-11.059-3.487-13.377-.508-9.778,20.884-9.778,20.884" transform="translate(-28.957 -400.886)" fill="#fff" stroke="#263238" stroke-miterlimit="10" stroke-width="1"/>
          </g>
        </g>
      </g>
    </g>
  </g>
</svg>
