<svg xmlns="http://www.w3.org/2000/svg" width="153" height="153" viewBox="0 0 153 153">
  <g id="Group_7212" data-name="Group 7212" transform="translate(-1009 -321)">
    <circle id="Ellipse_274" data-name="Ellipse 274" cx="76.5" cy="76.5" r="76.5" transform="translate(1009 321)" fill="#cdf2ef"/>
    <g id="Group_7141" data-name="Group 7141" transform="translate(1052 349)">
      <g id="Group_7140" data-name="Group 7140" transform="translate(5.206 4.552)">
        <g id="Group_7138" data-name="Group 7138">
          <path id="Path_9129" data-name="Path 9129" d="M2901.123,633.632a19.071,19.071,0,0,0,5.024-13.307V609.287l-28.15-.843-28.149.843v11.038a19.326,19.326,0,0,0,5.3,13.307l14.506,15.295a4.085,4.085,0,0,1,0,5.624l-14.5,15.295a19.328,19.328,0,0,0-5.3,13.307v11.038l28.149.843,28.15-.843V683.152a19.071,19.071,0,0,0-5.024-13.307l-14.368-15.295a4.086,4.086,0,0,1-.071-5.624Z" transform="translate(-2849.848 -608.444)" fill="#263238"/>
          <path id="Path_9130" data-name="Path 9130" d="M2919.472,665.933s-7.447-5.386-8.567-14.195c1.12-8.808,8.567-14.195,8.567-14.195,17.987-12.641,11.264-28.256,11.264-28.256l-24.542-.844-24.424.844s-6.663,15.615,11.323,28.256c0,0,7.5,5.386,8.625,14.195-1.128,8.808-8.625,14.195-8.625,14.195-17.986,12.641-11.323,28.256-11.323,28.256l24.424.844,24.542-.844S2937.459,678.574,2919.472,665.933Z" transform="translate(-2877.84 -608.444)" fill="#fff"/>
        </g>
        <g id="Group_7139" data-name="Group 7139" transform="translate(6.304 15.5)">
          <path id="Path_9131" data-name="Path 9131" d="M2950.836,800.252a9.74,9.74,0,0,1,3.919,4.872c.049.134.094.363.136.495a1.342,1.342,0,0,0,1.19.969h.015a2.184,2.184,0,0,0,1.92-1.47,9.518,9.518,0,0,1,3.81-4.664c13.144-8.562,15.72-17.2,15.72-17.2H2935.2S2937.765,791.715,2950.836,800.252Z" transform="translate(-2933.936 -783.258)" fill="#a3c0be"/>
          <path id="Path_9132" data-name="Path 9132" d="M2949.023,1313.857a10.479,10.479,0,0,1-3.98-4.963c-.092-.237-.177-.5-.25-.735a1.384,1.384,0,0,0-1.3-.968,2.113,2.113,0,0,0-1.988,1.376,10.62,10.62,0,0,1-4.038,5.184c-13.812,9.006-16.52,18.323-16.52,18.323H2965.5S2962.8,1322.847,2949.023,1313.857Z" transform="translate(-2920.943 -1260.737)" fill="#a3c0be"/>
        </g>
        <path id="Path_9133" data-name="Path 9133" d="M3161.873,1073.74a1.067,1.067,0,1,1-1.067-1.067A1.067,1.067,0,0,1,3161.873,1073.74Z" transform="translate(-3132.263 -1031.512)" fill="#a3c0be"/>
        <path id="Path_9134" data-name="Path 9134" d="M3182.706,1159a.79.79,0,1,1-.79-.79A.79.79,0,0,1,3182.706,1159Z" transform="translate(-3151.753 -1109.468)" fill="#a3c0be"/>
        <path id="Path_9135" data-name="Path 9135" d="M3147.064,1223.158a.79.79,0,1,1-.79-.79A.79.79,0,0,1,3147.064,1223.158Z" transform="translate(-3119.271 -1167.934)" fill="#a3c0be"/>
      </g>
      <rect id="Rectangle_1811" data-name="Rectangle 1811" width="66.903" height="8.098" rx="4.049" fill="#009788"/>
      <rect id="Rectangle_1812" data-name="Rectangle 1812" width="66.903" height="8.098" rx="4.049" transform="translate(0 89.462)" fill="#009788"/>
    </g>
  </g>
</svg>
