<svg id="houseboat_black_24dp" xmlns="http://www.w3.org/2000/svg" width="24" height="24" viewBox="0 0 24 24">
  <rect id="Rectangle_1772" data-name="Rectangle 1772" width="24" height="24" fill="none"/>
  <path id="Path_8878" data-name="Path 8878" d="M12,16c-1.95,0-2.1,1-3.34,1-1.19,0-1.42-1-3.33-1C3.38,16,3.24,17,2,17v2c1.9,0,2.17-1,3.35-1s1.42,1,3.33,1c1.95,0,2.08-1,3.32-1s1.37,1,3.32,1c1.91,0,2.14-1,3.33-1S20.1,19,22,19V17c-1.24,0-1.38-1-3.33-1-1.91,0-2.14,1-3.33,1C14.1,17,13.95,16,12,16Zm8.34-4.66-1.37,1.37a1.052,1.052,0,0,1-.71.29H17V9.65l1.32.97L19.5,9,12,3.5,4.5,9l1.18,1.61L7,9.65V13H5.74a1.033,1.033,0,0,1-.71-.29L3.66,11.34,2.25,12.75l1.37,1.37A3.015,3.015,0,0,0,5.74,15H18.25a3,3,0,0,0,2.12-.88l1.37-1.37ZM13,13V11H11v2H9V8.18l3-2.2,3,2.2V13Z" fill="#fff"/>
</svg>
