<svg xmlns="http://www.w3.org/2000/svg" xmlns:xlink="http://www.w3.org/1999/xlink" width="36" height="27" viewBox="0 0 36 27">
  <defs>
    <clipPath id="clip-path">
      <rect id="Rectangle_1784" data-name="Rectangle 1784" width="36" height="27" rx="2" transform="translate(496 525)" fill="#b1b6c0"/>
    </clipPath>
  </defs>
  <g id="Mask_Group_8" data-name="Mask Group 8" transform="translate(-496 -525)" clip-path="url(#clip-path)">
    <g id="iran" transform="translate(493.895 436.724)">
      <path id="Path_8983" data-name="Path 8983" d="M41.21,97.276H0V88.987a.711.711,0,0,1,.711-.711H40.5a.711.711,0,0,1,.711.711v8.289Z" fill="#73af00"/>
      <path id="Path_8984" data-name="Path 8984" d="M40.5,320.909H.711A.711.711,0,0,1,0,320.2v-8.289H41.21V320.2A.711.711,0,0,1,40.5,320.909Z" transform="translate(0 -205.633)" fill="#ff4b55"/>
      <g id="Group_7072" data-name="Group 7072" transform="translate(0 95.627)">
        <rect id="Rectangle_1783" data-name="Rectangle 1783" width="41.21" height="8.999" transform="translate(0 1.649)" fill="#f5f5f5"/>
        <path id="Path_8985" data-name="Path 8985" d="M.112,180.774H.118a.112.112,0,0,0,.112-.112v-.242a.112.112,0,0,1,.112-.112H.811a.112.112,0,0,1,.112.112v.242a.112.112,0,0,0,.112.112H1.96a.112.112,0,0,0,.112-.112v-.478a.112.112,0,0,0-.112-.112H1.494a.112.112,0,0,0-.112.112v.012a.112.112,0,0,0,.112.112H1.73a.112.112,0,0,1,.112.112v.012a.112.112,0,0,1-.112.112H1.264a.112.112,0,0,1-.112-.112v-.248a.112.112,0,0,0-.112-.112H.112a.112.112,0,0,0-.112.112v.478A.112.112,0,0,0,.112,180.774Zm.463,0H.581a.112.112,0,0,0,.112-.112v-.006a.112.112,0,0,0-.112-.112H.574a.112.112,0,0,0-.112.112v.006A.112.112,0,0,0,.574,180.774Zm-.463-.937H2.882a.112.112,0,0,0,.112-.112v-.012a.112.112,0,0,0-.112-.112H.112a.112.112,0,0,0-.112.112v.012A.112.112,0,0,0,.112,179.837Zm2.771.937H2.416a.112.112,0,0,1-.112-.112v-.478a.112.112,0,0,1,.112-.112h.7a.112.112,0,0,0,.112-.112v-.248a.112.112,0,0,1,.112-.112h.006a.112.112,0,0,1,.112.112v.72a.112.112,0,0,0,.112.112h.006a.112.112,0,0,0,.112-.112v-.72A.112.112,0,0,1,3.8,179.6H3.8a.112.112,0,0,1,.112.112v.72a.112.112,0,0,0,.112.112h.009a.112.112,0,0,0,.112-.112v-.72a.112.112,0,0,1,.112-.112h0a.112.112,0,0,1,.112.112v.95a.112.112,0,0,1-.112.112H3.336a.112.112,0,0,1-.112-.112v-.242a.112.112,0,0,0-.112-.112H2.646a.112.112,0,0,0-.112.112v.012a.112.112,0,0,0,.112.112h.236a.112.112,0,0,1,.112.112v.006A.112.112,0,0,1,2.882,180.774Z" transform="translate(0 -179.601)" fill="#f5f5f5"/>
        <path id="Path_8986" data-name="Path 8986" d="M57.341,180.774h.009a.112.112,0,0,0,.112-.112v-.242a.112.112,0,0,1,.112-.112h.463a.112.112,0,0,1,.112.112v.242a.112.112,0,0,0,.112.112h.926a.112.112,0,0,0,.112-.112v-.478a.112.112,0,0,0-.112-.112H58.72a.112.112,0,0,0-.112.112v.012a.112.112,0,0,0,.112.112h.236a.112.112,0,0,1,.112.112v.012a.112.112,0,0,1-.112.112H58.49a.112.112,0,0,1-.112-.112v-.248a.112.112,0,0,0-.112-.112h-.926a.112.112,0,0,0-.112.112v.478A.112.112,0,0,0,57.341,180.774Zm.46,0h.006a.112.112,0,0,0,.112-.112v-.006a.112.112,0,0,0-.112-.112H57.8a.112.112,0,0,0-.112.112v.006A.112.112,0,0,0,57.8,180.774Zm-.46-.937h2.768a.112.112,0,0,0,.112-.112v-.012a.112.112,0,0,0-.112-.112H57.341a.112.112,0,0,0-.112.112v.012A.112.112,0,0,0,57.341,179.837Zm2.768.937H59.64a.112.112,0,0,1-.112-.112v-.478a.112.112,0,0,1,.112-.112h.7a.112.112,0,0,0,.112-.112v-.248a.112.112,0,0,1,.112-.112h.009a.112.112,0,0,1,.112.112v.72a.112.112,0,0,0,.112.112H60.8a.112.112,0,0,0,.112-.112v-.72a.112.112,0,0,1,.112-.112h0a.112.112,0,0,1,.112.112v.72a.112.112,0,0,0,.112.112h.009a.112.112,0,0,0,.112-.112v-.72a.112.112,0,0,1,.112-.112h.006a.112.112,0,0,1,.112.112v.95a.112.112,0,0,1-.112.112h-.932a.112.112,0,0,1-.112-.112v-.242a.112.112,0,0,0-.112-.112h-.463a.112.112,0,0,0-.112.112v.012a.112.112,0,0,0,.112.112h.236a.112.112,0,0,1,.112.112v.006A.112.112,0,0,1,60.109,180.774Z" transform="translate(-52.623 -179.601)" fill="#f5f5f5"/>
        <path id="Path_8987" data-name="Path 8987" d="M114.537,180.774h.006a.112.112,0,0,0,.112-.112v-.242a.112.112,0,0,1,.112-.112h.466a.112.112,0,0,1,.112.112v.242a.112.112,0,0,0,.112.112h.929a.112.112,0,0,0,.112-.112v-.478a.112.112,0,0,0-.112-.112h-.466a.112.112,0,0,0-.112.112v.012a.112.112,0,0,0,.112.112h.236a.112.112,0,0,1,.112.112v.012a.112.112,0,0,1-.112.112h-.469a.112.112,0,0,1-.112-.112v-.248a.112.112,0,0,0-.112-.112h-.926a.112.112,0,0,0-.112.112v.478A.112.112,0,0,0,114.537,180.774Zm.46,0H115a.112.112,0,0,0,.112-.112v-.006a.112.112,0,0,0-.112-.112H115a.112.112,0,0,0-.112.112v.006A.112.112,0,0,0,115,180.774Zm-.46-.937h2.771a.112.112,0,0,0,.112-.112v-.012a.112.112,0,0,0-.112-.112h-2.771a.112.112,0,0,0-.112.112v.012A.112.112,0,0,0,114.537,179.837Zm2.771.937h-.469a.112.112,0,0,1-.112-.112v-.478a.112.112,0,0,1,.112-.112h.7a.112.112,0,0,0,.112-.112v-.248a.112.112,0,0,1,.112-.112h.006a.112.112,0,0,1,.112.112v.72a.112.112,0,0,0,.112.112H118a.112.112,0,0,0,.112-.112v-.72a.112.112,0,0,1,.112-.112h.009a.112.112,0,0,1,.112.112v.72a.112.112,0,0,0,.112.112h0a.112.112,0,0,0,.112-.112v-.72a.112.112,0,0,1,.112-.112h.006a.112.112,0,0,1,.112.112v.95a.112.112,0,0,1-.112.112h-.929a.112.112,0,0,1-.112-.112v-.242a.112.112,0,0,0-.112-.112h-.466a.112.112,0,0,0-.112.112v.012a.112.112,0,0,0,.112.112h.239a.112.112,0,0,1,.112.112v.006A.112.112,0,0,1,117.308,180.774Z" transform="translate(-105.215 -179.601)" fill="#f5f5f5"/>
        <path id="Path_8988" data-name="Path 8988" d="M171.73,180.774h.006a.112.112,0,0,0,.112-.112v-.242a.112.112,0,0,1,.112-.112h.466a.112.112,0,0,1,.112.112v.242a.112.112,0,0,0,.112.112h.929a.112.112,0,0,0,.112-.112v-.478a.112.112,0,0,0-.112-.112h-.469a.112.112,0,0,0-.112.112v.012a.112.112,0,0,0,.112.112h.236a.112.112,0,0,1,.112.112v.012a.112.112,0,0,1-.112.112h-.466a.112.112,0,0,1-.112-.112v-.248a.112.112,0,0,0-.112-.112h-.926a.112.112,0,0,0-.112.112v.478A.112.112,0,0,0,171.73,180.774Zm.46,0h.006a.112.112,0,0,0,.112-.112v-.006a.112.112,0,0,0-.112-.112h-.006a.112.112,0,0,0-.112.112v.006A.112.112,0,0,0,172.19,180.774Zm-.46-.937H174.5a.112.112,0,0,0,.112-.112v-.012a.112.112,0,0,0-.112-.112H171.73a.112.112,0,0,0-.112.112v.012A.112.112,0,0,0,171.73,179.837Zm2.768.937h-.469a.112.112,0,0,1-.112-.112v-.478a.112.112,0,0,1,.112-.112h.7a.112.112,0,0,0,.112-.112v-.248a.112.112,0,0,1,.112-.112h.006a.112.112,0,0,1,.112.112v.72a.112.112,0,0,0,.112.112h0a.112.112,0,0,0,.112-.112v-.72a.112.112,0,0,1,.112-.112h.009a.112.112,0,0,1,.112.112v.72a.112.112,0,0,0,.112.112h.006a.112.112,0,0,0,.112-.112v-.72a.112.112,0,0,1,.112-.112h.006a.112.112,0,0,1,.112.112v.95a.112.112,0,0,1-.112.112h-.926a.112.112,0,0,1-.112-.112v-.242a.112.112,0,0,0-.112-.112h-.469a.112.112,0,0,0-.112.112v.012a.112.112,0,0,0,.112.112h.236a.112.112,0,0,1,.112.112v.006A.112.112,0,0,1,174.5,180.774Z" transform="translate(-157.805 -179.601)" fill="#f5f5f5"/>
        <path id="Path_8989" data-name="Path 8989" d="M228.923,180.774h.006a.112.112,0,0,0,.112-.112v-.242a.112.112,0,0,1,.112-.112h.466a.112.112,0,0,1,.112.112v.242a.112.112,0,0,0,.112.112h.929a.112.112,0,0,0,.112-.112v-.478a.112.112,0,0,0-.112-.112H230.3a.112.112,0,0,0-.112.112v.012a.112.112,0,0,0,.112.112h.239a.112.112,0,0,1,.112.112v.012a.112.112,0,0,1-.112.112h-.466a.112.112,0,0,1-.112-.112v-.248a.112.112,0,0,0-.112-.112h-.929a.112.112,0,0,0-.112.112v.478A.112.112,0,0,0,228.923,180.774Zm.463,0h0a.112.112,0,0,0,.112-.112v-.006a.112.112,0,0,0-.112-.112h0a.112.112,0,0,0-.112.112v.006A.112.112,0,0,0,229.386,180.774Zm-.463-.937h2.771a.112.112,0,0,0,.112-.112v-.012a.112.112,0,0,0-.112-.112h-2.771a.112.112,0,0,0-.112.112v.012A.112.112,0,0,0,228.923,179.837Zm2.771.937h-.469a.112.112,0,0,1-.112-.112v-.478a.112.112,0,0,1,.112-.112h.7a.112.112,0,0,0,.112-.112v-.248a.112.112,0,0,1,.112-.112h.006a.112.112,0,0,1,.112.112v.72a.112.112,0,0,0,.112.112h.006a.112.112,0,0,0,.112-.112v-.72a.112.112,0,0,1,.112-.112h.006a.112.112,0,0,1,.112.112v.72a.112.112,0,0,0,.112.112h.006a.112.112,0,0,0,.112-.112v-.72a.112.112,0,0,1,.112-.112h.006a.112.112,0,0,1,.112.112v.95a.112.112,0,0,1-.112.112h-.926a.112.112,0,0,1-.112-.112v-.242a.112.112,0,0,0-.112-.112h-.469a.112.112,0,0,0-.112.112v.012a.112.112,0,0,0,.112.112h.239a.112.112,0,0,1,.112.112v.006A.112.112,0,0,1,231.694,180.774Z" transform="translate(-210.394 -179.601)" fill="#f5f5f5"/>
        <path id="Path_8990" data-name="Path 8990" d="M286.118,180.774h.006a.112.112,0,0,0,.112-.112v-.242a.112.112,0,0,1,.112-.112h.466a.112.112,0,0,1,.112.112v.242a.112.112,0,0,0,.112.112h.929a.112.112,0,0,0,.112-.112v-.478a.112.112,0,0,0-.112-.112H287.5a.112.112,0,0,0-.112.112v.012a.112.112,0,0,0,.112.112h.233a.112.112,0,0,1,.112.112v.012a.112.112,0,0,1-.112.112h-.463a.112.112,0,0,1-.112-.112v-.248a.112.112,0,0,0-.112-.112h-.929a.112.112,0,0,0-.112.112v.478A.112.112,0,0,0,286.118,180.774Zm.463,0h0a.112.112,0,0,0,.112-.112v-.006a.112.112,0,0,0-.112-.112h0a.112.112,0,0,0-.112.112v.006A.112.112,0,0,0,286.58,180.774Zm-.463-.937h2.771a.112.112,0,0,0,.112-.112v-.012a.112.112,0,0,0-.112-.112h-2.771a.112.112,0,0,0-.112.112v.012A.112.112,0,0,0,286.118,179.837Zm2.771.937h-.466a.112.112,0,0,1-.112-.112v-.478a.112.112,0,0,1,.112-.112h.7a.112.112,0,0,0,.112-.112v-.248a.112.112,0,0,1,.112-.112h.006a.112.112,0,0,1,.112.112v.72a.112.112,0,0,0,.112.112h.006a.112.112,0,0,0,.112-.112v-.72a.112.112,0,0,1,.112-.112h.006a.112.112,0,0,1,.112.112v.72a.112.112,0,0,0,.112.112h.006a.112.112,0,0,0,.112-.112v-.72a.112.112,0,0,1,.112-.112h.006a.112.112,0,0,1,.112.112v.95a.112.112,0,0,1-.112.112h-.926a.112.112,0,0,1-.112-.112v-.242a.112.112,0,0,0-.112-.112h-.469a.112.112,0,0,0-.112.112v.012a.112.112,0,0,0,.112.112h.239a.112.112,0,0,1,.112.112v.006A.112.112,0,0,1,288.889,180.774Z" transform="translate(-262.986 -179.601)" fill="#f5f5f5"/>
        <path id="Path_8991" data-name="Path 8991" d="M343.312,180.774h.006a.112.112,0,0,0,.112-.112v-.242a.112.112,0,0,1,.112-.112h.469a.112.112,0,0,1,.112.112v.242a.112.112,0,0,0,.112.112h.926a.112.112,0,0,0,.112-.112v-.478a.112.112,0,0,0-.112-.112h-.466a.112.112,0,0,0-.112.112v.012a.112.112,0,0,0,.112.112h.239a.112.112,0,0,1,.112.112v.012a.112.112,0,0,1-.112.112h-.472a.112.112,0,0,1-.112-.112v-.248a.112.112,0,0,0-.112-.112h-.926a.112.112,0,0,0-.112.112v.478A.112.112,0,0,0,343.312,180.774Zm.46,0h.009a.112.112,0,0,0,.112-.112v-.006a.112.112,0,0,0-.112-.112h-.009a.112.112,0,0,0-.112.112v.006A.112.112,0,0,0,343.772,180.774Zm-.46-.937h2.771a.112.112,0,0,0,.112-.112v-.012a.112.112,0,0,0-.112-.112h-2.771a.112.112,0,0,0-.112.112v.012A.112.112,0,0,0,343.312,179.837Zm2.771.937h-.466a.112.112,0,0,1-.112-.112v-.478a.112.112,0,0,1,.112-.112h.7a.112.112,0,0,0,.112-.112v-.248a.112.112,0,0,1,.112-.112h.006a.112.112,0,0,1,.112.112v.72a.112.112,0,0,0,.112.112h.006a.112.112,0,0,0,.112-.112v-.72A.112.112,0,0,1,347,179.6H347a.112.112,0,0,1,.112.112v.72a.112.112,0,0,0,.112.112h.009a.112.112,0,0,0,.112-.112v-.72a.112.112,0,0,1,.112-.112h0a.112.112,0,0,1,.112.112v.95a.112.112,0,0,1-.112.112h-.926a.112.112,0,0,1-.112-.112v-.242a.112.112,0,0,0-.112-.112h-.463a.112.112,0,0,0-.112.112v.012a.112.112,0,0,0,.112.112h.233a.112.112,0,0,1,.112.112v.006A.112.112,0,0,1,346.083,180.774Z" transform="translate(-315.576 -179.601)" fill="#f5f5f5"/>
        <path id="Path_8992" data-name="Path 8992" d="M400.543,180.774h0a.112.112,0,0,0,.112-.112v-.242a.112.112,0,0,1,.112-.112h.466a.112.112,0,0,1,.112.112v.242a.112.112,0,0,0,.112.112h.929a.112.112,0,0,0,.112-.112v-.478a.112.112,0,0,0-.112-.112h-.463a.112.112,0,0,0-.112.112v.012a.112.112,0,0,0,.112.112h.236a.112.112,0,0,1,.112.112v.012a.112.112,0,0,1-.112.112h-.469a.112.112,0,0,1-.112-.112v-.248a.112.112,0,0,0-.112-.112h-.926a.112.112,0,0,0-.112.112v.478A.112.112,0,0,0,400.543,180.774Zm.46,0h.006a.112.112,0,0,0,.112-.112v-.006a.112.112,0,0,0-.112-.112H401a.112.112,0,0,0-.112.112v.006A.112.112,0,0,0,401,180.774Zm-.46-.937h2.774a.112.112,0,0,0,.112-.112v-.012a.112.112,0,0,0-.112-.112h-2.774a.112.112,0,0,0-.112.112v.012A.112.112,0,0,0,400.543,179.837Zm2.774.937h-.472a.112.112,0,0,1-.112-.112v-.478a.112.112,0,0,1,.112-.112h.7a.112.112,0,0,0,.112-.112v-.248a.112.112,0,0,1,.112-.112h.009a.112.112,0,0,1,.112.112v.72a.112.112,0,0,0,.112.112H404a.112.112,0,0,0,.112-.112v-.72a.112.112,0,0,1,.112-.112h0a.112.112,0,0,1,.112.112v.72a.112.112,0,0,0,.112.112h.009a.112.112,0,0,0,.112-.112v-.72a.112.112,0,0,1,.112-.112h.006a.112.112,0,0,1,.112.112v.95a.112.112,0,0,1-.112.112h-.929a.112.112,0,0,1-.112-.112v-.242a.112.112,0,0,0-.112-.112h-.466a.112.112,0,0,0-.112.112v.012a.112.112,0,0,0,.112.112h.242a.112.112,0,0,1,.112.112v.006A.112.112,0,0,1,403.316,180.774Z" transform="translate(-368.201 -179.601)" fill="#f5f5f5"/>
        <path id="Path_8993" data-name="Path 8993" d="M457.736,180.774h.006a.112.112,0,0,0,.112-.112v-.242a.112.112,0,0,1,.112-.112h.466a.112.112,0,0,1,.112.112v.242a.112.112,0,0,0,.112.112h.929a.112.112,0,0,0,.112-.112v-.478a.112.112,0,0,0-.112-.112h-.463a.112.112,0,0,0-.112.112v.012a.112.112,0,0,0,.112.112h.236a.112.112,0,0,1,.112.112v.012a.112.112,0,0,1-.112.112h-.472a.112.112,0,0,1-.112-.112v-.248a.112.112,0,0,0-.112-.112h-.926a.112.112,0,0,0-.112.112v.478A.112.112,0,0,0,457.736,180.774Zm.46,0h.006a.112.112,0,0,0,.112-.112v-.006a.112.112,0,0,0-.112-.112H458.2a.112.112,0,0,0-.112.112v.006A.112.112,0,0,0,458.2,180.774Zm-.46-.937H460.5a.112.112,0,0,0,.112-.112v-.012a.112.112,0,0,0-.112-.112h-2.768a.112.112,0,0,0-.112.112v.012A.112.112,0,0,0,457.736,179.837Zm2.768.937h-.466a.112.112,0,0,1-.112-.112v-.478a.112.112,0,0,1,.112-.112h.7a.112.112,0,0,0,.112-.112v-.248a.112.112,0,0,1,.112-.112h0a.112.112,0,0,1,.112.112v.72a.112.112,0,0,0,.112.112h.012a.112.112,0,0,0,.112-.112v-.72a.112.112,0,0,1,.112-.112h0a.112.112,0,0,1,.112.112v.72a.112.112,0,0,0,.112.112h.006a.112.112,0,0,0,.112-.112v-.72a.112.112,0,0,1,.112-.112h.012a.112.112,0,0,1,.112.112v.95a.112.112,0,0,1-.112.112h-.926a.112.112,0,0,1-.112-.112v-.242a.112.112,0,0,0-.112-.112h-.472a.112.112,0,0,0-.112.112v.012a.112.112,0,0,0,.112.112h.236a.112.112,0,0,1,.112.112v.006A.112.112,0,0,1,460.5,180.774Z" transform="translate(-420.79 -179.601)" fill="#f5f5f5"/>
        <path id="Path_8994" data-name="Path 8994" d="M.112,197.648H1.96a.112.112,0,0,0,.112-.112v-.248a.112.112,0,0,0-.112-.112H.112a.112.112,0,0,0-.112.112v.248A.112.112,0,0,0,.112,197.648Zm2.3,0H4.262a.112.112,0,0,0,.112-.112v-.248a.112.112,0,0,0-.112-.112H2.416a.112.112,0,0,0-.112.112v.248A.112.112,0,0,0,2.416,197.648Z" transform="translate(0 -195.761)" fill="#f5f5f5"/>
        <path id="Path_8995" data-name="Path 8995" d="M57.341,197.648h1.845a.112.112,0,0,0,.112-.112v-.248a.112.112,0,0,0-.112-.112H57.341a.112.112,0,0,0-.112.112v.248A.112.112,0,0,0,57.341,197.648Zm2.3,0h1.851a.112.112,0,0,0,.112-.112v-.248a.112.112,0,0,0-.112-.112H59.64a.112.112,0,0,0-.112.112v.248A.112.112,0,0,0,59.64,197.648Z" transform="translate(-52.623 -195.761)" fill="#f5f5f5"/>
        <path id="Path_8996" data-name="Path 8996" d="M114.537,197.648h1.848a.112.112,0,0,0,.112-.112v-.248a.112.112,0,0,0-.112-.112h-1.848a.112.112,0,0,0-.112.112v.248A.112.112,0,0,0,114.537,197.648Zm2.3,0h1.848a.112.112,0,0,0,.112-.112v-.248a.112.112,0,0,0-.112-.112h-1.848a.112.112,0,0,0-.112.112v.248A.112.112,0,0,0,116.838,197.648Z" transform="translate(-105.215 -195.761)" fill="#f5f5f5"/>
        <path id="Path_8997" data-name="Path 8997" d="M171.73,197.648h1.848a.112.112,0,0,0,.112-.112v-.248a.112.112,0,0,0-.112-.112H171.73a.112.112,0,0,0-.112.112v.248A.112.112,0,0,0,171.73,197.648Zm2.3,0h1.851a.112.112,0,0,0,.112-.112v-.248a.112.112,0,0,0-.112-.112h-1.851a.112.112,0,0,0-.112.112v.248A.112.112,0,0,0,174.029,197.648Z" transform="translate(-157.805 -195.761)" fill="#f5f5f5"/>
        <path id="Path_8998" data-name="Path 8998" d="M228.923,197.648h1.848a.112.112,0,0,0,.112-.112v-.248a.112.112,0,0,0-.112-.112h-1.848a.112.112,0,0,0-.112.112v.248A.112.112,0,0,0,228.923,197.648Zm2.3,0h1.848a.112.112,0,0,0,.112-.112v-.248a.112.112,0,0,0-.112-.112h-1.848a.112.112,0,0,0-.112.112v.248A.112.112,0,0,0,231.225,197.648Z" transform="translate(-210.394 -195.761)" fill="#f5f5f5"/>
        <path id="Path_8999" data-name="Path 8999" d="M286.118,197.648h1.848a.112.112,0,0,0,.112-.112v-.248a.112.112,0,0,0-.112-.112h-1.848a.112.112,0,0,0-.112.112v.248A.112.112,0,0,0,286.118,197.648Zm2.3,0h1.845a.112.112,0,0,0,.112-.112v-.248a.112.112,0,0,0-.112-.112h-1.845a.112.112,0,0,0-.112.112v.248A.112.112,0,0,0,288.423,197.648Z" transform="translate(-262.986 -195.761)" fill="#f5f5f5"/>
        <path id="Path_9000" data-name="Path 9000" d="M343.312,197.648h1.848a.112.112,0,0,0,.112-.112v-.248a.112.112,0,0,0-.112-.112h-1.848a.112.112,0,0,0-.112.112v.248A.112.112,0,0,0,343.312,197.648Zm2.3,0h1.845a.112.112,0,0,0,.112-.112v-.248a.112.112,0,0,0-.112-.112h-1.845a.112.112,0,0,0-.112.112v.248A.112.112,0,0,0,345.617,197.648Z" transform="translate(-315.576 -195.761)" fill="#f5f5f5"/>
        <path id="Path_9001" data-name="Path 9001" d="M400.543,197.648h1.845a.112.112,0,0,0,.112-.112v-.248a.112.112,0,0,0-.112-.112h-1.845a.112.112,0,0,0-.112.112v.248A.112.112,0,0,0,400.543,197.648Zm2.3,0h1.848a.112.112,0,0,0,.112-.112v-.248a.112.112,0,0,0-.112-.112h-1.848a.112.112,0,0,0-.112.112v.248A.112.112,0,0,0,402.845,197.648Z" transform="translate(-368.201 -195.761)" fill="#f5f5f5"/>
        <path id="Path_9002" data-name="Path 9002" d="M457.736,197.648h1.848a.112.112,0,0,0,.112-.112v-.248a.112.112,0,0,0-.112-.112h-1.848a.112.112,0,0,0-.112.112v.248A.112.112,0,0,0,457.736,197.648Zm2.3,0h1.851a.112.112,0,0,0,.112-.112v-.248a.112.112,0,0,0-.112-.112h-1.851a.112.112,0,0,0-.112.112v.248A.112.112,0,0,0,460.038,197.648Z" transform="translate(-420.79 -195.761)" fill="#f5f5f5"/>
        <path id="Path_9003" data-name="Path 9003" d="M461.924,317.826h-.006a.112.112,0,0,0-.112.112v.242a.112.112,0,0,1-.112.112h-.469a.112.112,0,0,1-.112-.112v-.242a.112.112,0,0,0-.112-.112h-.926a.112.112,0,0,0-.112.112v.478a.112.112,0,0,0,.112.112h.466a.112.112,0,0,0,.112-.112V318.4a.112.112,0,0,0-.112-.112h-.236a.112.112,0,0,1-.112-.112v-.012a.112.112,0,0,1,.112-.112h.466a.112.112,0,0,1,.112.112v.248a.112.112,0,0,0,.112.112h.929a.112.112,0,0,0,.112-.112v-.478A.112.112,0,0,0,461.924,317.826Zm-.463,0h-.006a.112.112,0,0,0-.112.112v.006a.112.112,0,0,0,.112.112h.006a.112.112,0,0,0,.112-.112v-.006A.112.112,0,0,0,461.461,317.826Zm.463.937h-2.771a.112.112,0,0,0-.112.112v.012a.112.112,0,0,0,.112.112h2.771a.112.112,0,0,0,.112-.112v-.012A.112.112,0,0,0,461.924,318.763Zm-2.771-.937h.466a.112.112,0,0,1,.112.112v.478a.112.112,0,0,1-.112.112h-.7a.112.112,0,0,0-.112.112v.248a.112.112,0,0,1-.112.112h-.006a.112.112,0,0,1-.112-.112v-.72a.112.112,0,0,0-.112-.112h-.006a.112.112,0,0,0-.112.112v.72a.112.112,0,0,1-.112.112h-.006a.112.112,0,0,1-.112-.112v-.72a.112.112,0,0,0-.112-.112H458a.112.112,0,0,0-.112.112v.72a.112.112,0,0,1-.112.112h0a.112.112,0,0,1-.112-.112v-.95a.112.112,0,0,1,.112-.112h.926a.112.112,0,0,1,.112.112v.242a.112.112,0,0,0,.112.112h.466a.112.112,0,0,0,.112-.112v-.012a.112.112,0,0,0-.112-.112h-.236a.112.112,0,0,1-.112-.112v-.006A.112.112,0,0,1,459.153,317.826Z" transform="translate(-420.825 -306.7)" fill="#f5f5f5"/>
        <path id="Path_9004" data-name="Path 9004" d="M404.692,317.826h-.009a.112.112,0,0,0-.112.112v.242a.112.112,0,0,1-.112.112H404a.112.112,0,0,1-.112-.112v-.242a.112.112,0,0,0-.112-.112h-.926a.112.112,0,0,0-.112.112v.478a.112.112,0,0,0,.112.112h.466a.112.112,0,0,0,.112-.112V318.4a.112.112,0,0,0-.112-.112h-.236a.112.112,0,0,1-.112-.112v-.012a.112.112,0,0,1,.112-.112h.466a.112.112,0,0,1,.112.112v.248a.112.112,0,0,0,.112.112h.926a.112.112,0,0,0,.112-.112v-.478A.112.112,0,0,0,404.692,317.826Zm-.46,0h-.006a.112.112,0,0,0-.112.112v.006a.112.112,0,0,0,.112.112h.006a.112.112,0,0,0,.112-.112v-.006A.112.112,0,0,0,404.232,317.826Zm.46.937h-2.768a.112.112,0,0,0-.112.112v.012a.112.112,0,0,0,.112.112h2.768a.112.112,0,0,0,.112-.112v-.012A.112.112,0,0,0,404.692,318.763Zm-2.768-.937h.469a.112.112,0,0,1,.112.112v.478a.112.112,0,0,1-.112.112h-.7a.112.112,0,0,0-.112.112v.248a.112.112,0,0,1-.112.112h-.009a.112.112,0,0,1-.112-.112v-.72a.112.112,0,0,0-.112-.112h-.009a.112.112,0,0,0-.112.112v.72a.112.112,0,0,1-.112.112h0a.112.112,0,0,1-.112-.112v-.72a.112.112,0,0,0-.112-.112h-.009a.112.112,0,0,0-.112.112v.72a.112.112,0,0,1-.112.112h-.006a.112.112,0,0,1-.112-.112v-.95a.112.112,0,0,1,.112-.112h.932a.112.112,0,0,1,.112.112v.242a.112.112,0,0,0,.112.112h.463a.112.112,0,0,0,.112-.112v-.012a.112.112,0,0,0-.112-.112h-.236a.112.112,0,0,1-.112-.112v-.006A.112.112,0,0,1,401.924,317.826Z" transform="translate(-368.2 -306.7)" fill="#f5f5f5"/>
        <path id="Path_9005" data-name="Path 9005" d="M347.5,317.826h-.006a.112.112,0,0,0-.112.112v.242a.112.112,0,0,1-.112.112H346.8a.112.112,0,0,1-.112-.112v-.242a.112.112,0,0,0-.112-.112h-.929a.112.112,0,0,0-.112.112v.478a.112.112,0,0,0,.112.112h.466a.112.112,0,0,0,.112-.112V318.4a.112.112,0,0,0-.112-.112h-.236a.112.112,0,0,1-.112-.112v-.012a.112.112,0,0,1,.112-.112h.469a.112.112,0,0,1,.112.112v.248a.112.112,0,0,0,.112.112h.926a.112.112,0,0,0,.112-.112v-.478A.112.112,0,0,0,347.5,317.826Zm-.46,0h-.006a.112.112,0,0,0-.112.112v.006a.112.112,0,0,0,.112.112h.006a.112.112,0,0,0,.112-.112v-.006A.112.112,0,0,0,347.038,317.826Zm.46.937h-2.771a.112.112,0,0,0-.112.112v.012a.112.112,0,0,0,.112.112H347.5a.112.112,0,0,0,.112-.112v-.012A.112.112,0,0,0,347.5,318.763Zm-2.771-.937h.469a.112.112,0,0,1,.112.112v.478a.112.112,0,0,1-.112.112h-.7a.112.112,0,0,0-.112.112v.248a.112.112,0,0,1-.112.112h-.006a.112.112,0,0,1-.112-.112v-.72a.112.112,0,0,0-.112-.112h-.009a.112.112,0,0,0-.112.112v.72a.112.112,0,0,1-.112.112H343.8a.112.112,0,0,1-.112-.112v-.72a.112.112,0,0,0-.112-.112h0a.112.112,0,0,0-.112.112v.72a.112.112,0,0,1-.112.112h-.006a.112.112,0,0,1-.112-.112v-.95a.112.112,0,0,1,.112-.112h.929a.112.112,0,0,1,.112.112v.242a.112.112,0,0,0,.112.112h.466a.112.112,0,0,0,.112-.112v-.012a.112.112,0,0,0-.112-.112h-.239a.112.112,0,0,1-.112-.112v-.006A.112.112,0,0,1,344.727,317.826Z" transform="translate(-315.609 -306.7)" fill="#f5f5f5"/>
        <path id="Path_9006" data-name="Path 9006" d="M290.3,317.826H290.3a.112.112,0,0,0-.112.112v.242a.112.112,0,0,1-.112.112h-.466a.112.112,0,0,1-.112-.112v-.242a.112.112,0,0,0-.112-.112h-.929a.112.112,0,0,0-.112.112v.478a.112.112,0,0,0,.112.112h.469a.112.112,0,0,0,.112-.112V318.4a.112.112,0,0,0-.112-.112h-.236a.112.112,0,0,1-.112-.112v-.012a.112.112,0,0,1,.112-.112h.466a.112.112,0,0,1,.112.112v.248a.112.112,0,0,0,.112.112h.926a.112.112,0,0,0,.112-.112v-.478A.112.112,0,0,0,290.3,317.826Zm-.46,0h-.006a.112.112,0,0,0-.112.112v.006a.112.112,0,0,0,.112.112h.006a.112.112,0,0,0,.112-.112v-.006A.112.112,0,0,0,289.844,317.826Zm.46.937h-2.768a.112.112,0,0,0-.112.112v.012a.112.112,0,0,0,.112.112H290.3a.112.112,0,0,0,.112-.112v-.012A.112.112,0,0,0,290.3,318.763Zm-2.768-.937h.469a.112.112,0,0,1,.112.112v.478a.112.112,0,0,1-.112.112h-.7a.112.112,0,0,0-.112.112v.248a.112.112,0,0,1-.112.112h-.006a.112.112,0,0,1-.112-.112v-.72a.112.112,0,0,0-.112-.112h0a.112.112,0,0,0-.112.112v.72a.112.112,0,0,1-.112.112h-.009a.112.112,0,0,1-.112-.112v-.72a.112.112,0,0,0-.112-.112h-.006a.112.112,0,0,0-.112.112v.72a.112.112,0,0,1-.112.112h-.006a.112.112,0,0,1-.112-.112v-.95a.112.112,0,0,1,.112-.112h.926a.112.112,0,0,1,.112.112v.242a.112.112,0,0,0,.112.112h.469a.112.112,0,0,0,.112-.112v-.012a.112.112,0,0,0-.112-.112h-.236a.112.112,0,0,1-.112-.112v-.006A.112.112,0,0,1,287.536,317.826Z" transform="translate(-263.019 -306.7)" fill="#f5f5f5"/>
        <path id="Path_9007" data-name="Path 9007" d="M233.111,317.826H233.1a.112.112,0,0,0-.112.112v.242a.112.112,0,0,1-.112.112h-.466a.112.112,0,0,1-.112-.112v-.242a.112.112,0,0,0-.112-.112h-.929a.112.112,0,0,0-.112.112v.478a.112.112,0,0,0,.112.112h.469a.112.112,0,0,0,.112-.112V318.4a.112.112,0,0,0-.112-.112h-.239a.112.112,0,0,1-.112-.112v-.012a.112.112,0,0,1,.112-.112h.466a.112.112,0,0,1,.112.112v.248a.112.112,0,0,0,.112.112h.929a.112.112,0,0,0,.112-.112v-.478A.112.112,0,0,0,233.111,317.826Zm-.463,0h0a.112.112,0,0,0-.112.112v.006a.112.112,0,0,0,.112.112h0a.112.112,0,0,0,.112-.112v-.006A.112.112,0,0,0,232.648,317.826Zm.463.937H230.34a.112.112,0,0,0-.112.112v.012a.112.112,0,0,0,.112.112h2.771a.112.112,0,0,0,.112-.112v-.012A.112.112,0,0,0,233.111,318.763Zm-2.771-.937h.469a.112.112,0,0,1,.112.112v.478a.112.112,0,0,1-.112.112h-.7a.112.112,0,0,0-.112.112v.248a.112.112,0,0,1-.112.112h-.006a.112.112,0,0,1-.112-.112v-.72a.112.112,0,0,0-.112-.112h-.006a.112.112,0,0,0-.112.112v.72a.112.112,0,0,1-.112.112h-.006a.112.112,0,0,1-.112-.112v-.72a.112.112,0,0,0-.112-.112h-.006a.112.112,0,0,0-.112.112v.72a.112.112,0,0,1-.112.112h-.006a.112.112,0,0,1-.112-.112v-.95a.112.112,0,0,1,.112-.112h.926a.112.112,0,0,1,.112.112v.242a.112.112,0,0,0,.112.112h.469a.112.112,0,0,0,.112-.112v-.012a.112.112,0,0,0-.112-.112h-.239a.112.112,0,0,1-.112-.112v-.006A.112.112,0,0,1,230.34,317.826Z" transform="translate(-210.429 -306.7)" fill="#f5f5f5"/>
        <path id="Path_9008" data-name="Path 9008" d="M175.916,317.826h-.006a.112.112,0,0,0-.112.112v.242a.112.112,0,0,1-.112.112h-.466a.112.112,0,0,1-.112-.112v-.242a.112.112,0,0,0-.112-.112h-.929a.112.112,0,0,0-.112.112v.478a.112.112,0,0,0,.112.112h.466a.112.112,0,0,0,.112-.112V318.4a.112.112,0,0,0-.112-.112H174.3a.112.112,0,0,1-.112-.112v-.012a.112.112,0,0,1,.112-.112h.463a.112.112,0,0,1,.112.112v.248a.112.112,0,0,0,.112.112h.929a.112.112,0,0,0,.112-.112v-.478A.112.112,0,0,0,175.916,317.826Zm-.463,0h0a.112.112,0,0,0-.112.112v.006a.112.112,0,0,0,.112.112h0a.112.112,0,0,0,.112-.112v-.006A.112.112,0,0,0,175.453,317.826Zm.463.937h-2.771a.112.112,0,0,0-.112.112v.012a.112.112,0,0,0,.112.112h2.771a.112.112,0,0,0,.112-.112v-.012A.112.112,0,0,0,175.916,318.763Zm-2.771-.937h.466a.112.112,0,0,1,.112.112v.478a.112.112,0,0,1-.112.112h-.7a.112.112,0,0,0-.112.112v.248a.112.112,0,0,1-.112.112h-.006a.112.112,0,0,1-.112-.112v-.72a.112.112,0,0,0-.112-.112h-.006a.112.112,0,0,0-.112.112v.72a.112.112,0,0,1-.112.112h-.006a.112.112,0,0,1-.112-.112v-.72a.112.112,0,0,0-.112-.112H172a.112.112,0,0,0-.112.112v.72a.112.112,0,0,1-.112.112h-.006a.112.112,0,0,1-.112-.112v-.95a.112.112,0,0,1,.112-.112h.926a.112.112,0,0,1,.112.112v.242a.112.112,0,0,0,.112.112h.469a.112.112,0,0,0,.112-.112v-.012a.112.112,0,0,0-.112-.112h-.239a.112.112,0,0,1-.112-.112v-.006A.112.112,0,0,1,173.145,317.826Z" transform="translate(-157.838 -306.7)" fill="#f5f5f5"/>
        <path id="Path_9009" data-name="Path 9009" d="M118.721,317.826h-.006a.112.112,0,0,0-.112.112v.242a.112.112,0,0,1-.112.112h-.469a.112.112,0,0,1-.112-.112v-.242a.112.112,0,0,0-.112-.112h-.926a.112.112,0,0,0-.112.112v.478a.112.112,0,0,0,.112.112h.466a.112.112,0,0,0,.112-.112V318.4a.112.112,0,0,0-.112-.112H117.1a.112.112,0,0,1-.112-.112v-.012a.112.112,0,0,1,.112-.112h.472a.112.112,0,0,1,.112.112v.248a.112.112,0,0,0,.112.112h.926a.112.112,0,0,0,.112-.112v-.478A.112.112,0,0,0,118.721,317.826Zm-.46,0h-.009a.112.112,0,0,0-.112.112v.006a.112.112,0,0,0,.112.112h.009a.112.112,0,0,0,.112-.112v-.006A.112.112,0,0,0,118.261,317.826Zm.46.937H115.95a.112.112,0,0,0-.112.112v.012a.112.112,0,0,0,.112.112h2.771a.112.112,0,0,0,.112-.112v-.012A.112.112,0,0,0,118.721,318.763Zm-2.771-.937h.466a.112.112,0,0,1,.112.112v.478a.112.112,0,0,1-.112.112h-.7a.112.112,0,0,0-.112.112v.248a.112.112,0,0,1-.112.112h-.006a.112.112,0,0,1-.112-.112v-.72a.112.112,0,0,0-.112-.112h-.006a.112.112,0,0,0-.112.112v.72a.112.112,0,0,1-.112.112h-.006a.112.112,0,0,1-.112-.112v-.72a.112.112,0,0,0-.112-.112H114.8a.112.112,0,0,0-.112.112v.72a.112.112,0,0,1-.112.112h0a.112.112,0,0,1-.112-.112v-.95a.112.112,0,0,1,.112-.112h.926a.112.112,0,0,1,.112.112v.242a.112.112,0,0,0,.112.112h.463a.112.112,0,0,0,.112-.112v-.012a.112.112,0,0,0-.112-.112h-.233a.112.112,0,0,1-.112-.112v-.006A.112.112,0,0,1,115.95,317.826Z" transform="translate(-105.246 -306.7)" fill="#f5f5f5"/>
        <path id="Path_9010" data-name="Path 9010" d="M61.491,317.826h0a.112.112,0,0,0-.112.112v.242a.112.112,0,0,1-.112.112H60.8a.112.112,0,0,1-.112-.112v-.242a.112.112,0,0,0-.112-.112h-.929a.112.112,0,0,0-.112.112v.478a.112.112,0,0,0,.112.112h.463a.112.112,0,0,0,.112-.112V318.4a.112.112,0,0,0-.112-.112h-.236a.112.112,0,0,1-.112-.112v-.012a.112.112,0,0,1,.112-.112h.469a.112.112,0,0,1,.112.112v.248a.112.112,0,0,0,.112.112h.926a.112.112,0,0,0,.112-.112v-.478A.112.112,0,0,0,61.491,317.826Zm-.46,0h-.006a.112.112,0,0,0-.112.112v.006a.112.112,0,0,0,.112.112h.006a.112.112,0,0,0,.112-.112v-.006A.112.112,0,0,0,61.031,317.826Zm.46.937H58.717a.112.112,0,0,0-.112.112v.012a.112.112,0,0,0,.112.112h2.774a.112.112,0,0,0,.112-.112v-.012A.112.112,0,0,0,61.491,318.763Zm-2.774-.937h.472a.112.112,0,0,1,.112.112v.478a.112.112,0,0,1-.112.112h-.7a.112.112,0,0,0-.112.112v.248a.112.112,0,0,1-.112.112H58.26a.112.112,0,0,1-.112-.112v-.72a.112.112,0,0,0-.112-.112h-.006a.112.112,0,0,0-.112.112v.72a.112.112,0,0,1-.112.112h0a.112.112,0,0,1-.112-.112v-.72a.112.112,0,0,0-.112-.112h-.009a.112.112,0,0,0-.112.112v.72a.112.112,0,0,1-.112.112h-.006a.112.112,0,0,1-.112-.112v-.95a.112.112,0,0,1,.112-.112h.929a.112.112,0,0,1,.112.112v.242a.112.112,0,0,0,.112.112h.466a.112.112,0,0,0,.112-.112v-.012a.112.112,0,0,0-.112-.112h-.242a.112.112,0,0,1-.112-.112v-.006A.112.112,0,0,1,58.717,317.826Z" transform="translate(-52.623 -306.7)" fill="#f5f5f5"/>
        <path id="Path_9011" data-name="Path 9011" d="M4.265,317.826H4.258a.112.112,0,0,0-.112.112v.242a.112.112,0,0,1-.112.112H3.569a.112.112,0,0,1-.112-.112v-.242a.112.112,0,0,0-.112-.112H2.416a.112.112,0,0,0-.112.112v.478a.112.112,0,0,0,.112.112H2.88a.112.112,0,0,0,.112-.112V318.4a.112.112,0,0,0-.112-.112H2.643a.112.112,0,0,1-.112-.112v-.012a.112.112,0,0,1,.112-.112h.472a.112.112,0,0,1,.112.112v.248a.112.112,0,0,0,.112.112h.926a.112.112,0,0,0,.112-.112v-.478A.112.112,0,0,0,4.265,317.826Zm-.46,0H3.8a.112.112,0,0,0-.112.112v.006a.112.112,0,0,0,.112.112h.006a.112.112,0,0,0,.112-.112v-.006A.112.112,0,0,0,3.805,317.826Zm.46.937H1.5a.112.112,0,0,0-.112.112v.012A.112.112,0,0,0,1.5,319H4.265a.112.112,0,0,0,.112-.112v-.012A.112.112,0,0,0,4.265,318.763ZM1.5,317.826h.466a.112.112,0,0,1,.112.112v.478a.112.112,0,0,1-.112.112h-.7a.112.112,0,0,0-.112.112v.248a.112.112,0,0,1-.112.112h0a.112.112,0,0,1-.112-.112v-.72a.112.112,0,0,0-.112-.112H.8a.112.112,0,0,0-.112.112v.72A.112.112,0,0,1,.578,319h0a.112.112,0,0,1-.112-.112v-.72a.112.112,0,0,0-.112-.112H.347a.112.112,0,0,0-.112.112v.72A.112.112,0,0,1,.124,319H.112A.112.112,0,0,1,0,318.887v-.95a.112.112,0,0,1,.112-.112h.926a.112.112,0,0,1,.112.112v.242a.112.112,0,0,0,.112.112h.472a.112.112,0,0,0,.112-.112v-.012a.112.112,0,0,0-.112-.112H1.5a.112.112,0,0,1-.112-.112v-.006A.112.112,0,0,1,1.5,317.826Z" transform="translate(0 -306.7)" fill="#f5f5f5"/>
        <path id="Path_9012" data-name="Path 9012" d="M461.924,308.966h-1.848a.112.112,0,0,0-.112.112v.248a.112.112,0,0,0,.112.112h1.848a.112.112,0,0,0,.112-.112v-.248A.112.112,0,0,0,461.924,308.966Zm-2.3,0h-1.845a.112.112,0,0,0-.112.112v.248a.112.112,0,0,0,.112.112h1.845a.112.112,0,0,0,.112-.112v-.248A.112.112,0,0,0,459.619,308.966Z" transform="translate(-420.825 -298.554)" fill="#f5f5f5"/>
        <path id="Path_9013" data-name="Path 9013" d="M404.694,308.966h-1.845a.112.112,0,0,0-.112.112v.248a.112.112,0,0,0,.112.112h1.845a.112.112,0,0,0,.112-.112v-.248A.112.112,0,0,0,404.694,308.966Zm-2.3,0h-1.851a.112.112,0,0,0-.112.112v.248a.112.112,0,0,0,.112.112H402.4a.112.112,0,0,0,.112-.112v-.248A.112.112,0,0,0,402.4,308.966Z" transform="translate(-368.202 -298.554)" fill="#f5f5f5"/>
        <path id="Path_9014" data-name="Path 9014" d="M347.5,308.966h-1.848a.112.112,0,0,0-.112.112v.248a.112.112,0,0,0,.112.112H347.5a.112.112,0,0,0,.112-.112v-.248A.112.112,0,0,0,347.5,308.966Zm-2.3,0H343.35a.112.112,0,0,0-.112.112v.248a.112.112,0,0,0,.112.112H345.2a.112.112,0,0,0,.112-.112v-.248A.112.112,0,0,0,345.2,308.966Z" transform="translate(-315.611 -298.554)" fill="#f5f5f5"/>
        <path id="Path_9015" data-name="Path 9015" d="M290.3,308.966h-1.848a.112.112,0,0,0-.112.112v.248a.112.112,0,0,0,.112.112H290.3a.112.112,0,0,0,.112-.112v-.248A.112.112,0,0,0,290.3,308.966Zm-2.3,0h-1.851a.112.112,0,0,0-.112.112v.248a.112.112,0,0,0,.112.112h1.851a.112.112,0,0,0,.112-.112v-.248A.112.112,0,0,0,288.006,308.966Z" transform="translate(-263.02 -298.554)" fill="#f5f5f5"/>
        <path id="Path_9016" data-name="Path 9016" d="M233.111,308.966h-1.848a.112.112,0,0,0-.112.112v.248a.112.112,0,0,0,.112.112h1.848a.112.112,0,0,0,.112-.112v-.248A.112.112,0,0,0,233.111,308.966Zm-2.3,0h-1.848a.112.112,0,0,0-.112.112v.248a.112.112,0,0,0,.112.112h1.848a.112.112,0,0,0,.112-.112v-.248A.112.112,0,0,0,230.809,308.966Z" transform="translate(-210.429 -298.554)" fill="#f5f5f5"/>
        <path id="Path_9017" data-name="Path 9017" d="M175.916,308.966h-1.848a.112.112,0,0,0-.112.112v.248a.112.112,0,0,0,.112.112h1.848a.112.112,0,0,0,.112-.112v-.248A.112.112,0,0,0,175.916,308.966Zm-2.3,0h-1.845a.112.112,0,0,0-.112.112v.248a.112.112,0,0,0,.112.112h1.845a.112.112,0,0,0,.112-.112v-.248A.112.112,0,0,0,173.611,308.966Z" transform="translate(-157.838 -298.554)" fill="#f5f5f5"/>
        <path id="Path_9018" data-name="Path 9018" d="M118.724,308.966h-1.848a.112.112,0,0,0-.112.112v.248a.112.112,0,0,0,.112.112h1.848a.112.112,0,0,0,.112-.112v-.248A.112.112,0,0,0,118.724,308.966Zm-2.3,0h-1.845a.112.112,0,0,0-.112.112v.248a.112.112,0,0,0,.112.112h1.845a.112.112,0,0,0,.112-.112v-.248A.112.112,0,0,0,116.419,308.966Z" transform="translate(-105.249 -298.554)" fill="#f5f5f5"/>
        <path id="Path_9019" data-name="Path 9019" d="M61.491,308.966H59.646a.112.112,0,0,0-.112.112v.248a.112.112,0,0,0,.112.112h1.845a.112.112,0,0,0,.112-.112v-.248A.112.112,0,0,0,61.491,308.966Zm-2.3,0H57.341a.112.112,0,0,0-.112.112v.248a.112.112,0,0,0,.112.112h1.848a.112.112,0,0,0,.112-.112v-.248A.112.112,0,0,0,59.189,308.966Z" transform="translate(-52.623 -298.554)" fill="#f5f5f5"/>
        <path id="Path_9020" data-name="Path 9020" d="M4.265,308.966H2.416a.112.112,0,0,0-.112.112v.248a.112.112,0,0,0,.112.112H4.265a.112.112,0,0,0,.112-.112v-.248A.112.112,0,0,0,4.265,308.966Zm-2.3,0H.112a.112.112,0,0,0-.112.112v.248a.112.112,0,0,0,.112.112H1.963a.112.112,0,0,0,.112-.112v-.248A.112.112,0,0,0,1.963,308.966Z" transform="translate(0 -298.554)" fill="#f5f5f5"/>
      </g>
      <g id="Group_7073" data-name="Group 7073" transform="translate(16.41 97.675)">
        <path id="Path_9021" data-name="Path 9021" d="M243.5,205.8a2.609,2.609,0,0,1,1.448-.152.609.609,0,0,0,.166-.59.7.7,0,0,1-.97.23c-.017-.011-.039-.023-.053-.034a.713.713,0,0,1-.989-.14.6.6,0,0,0-.037-.056A.607.607,0,0,0,243.5,205.8Z" transform="translate(-239.893 -205.055)" fill="#ff4b55"/>
        <path id="Path_9022" data-name="Path 9022" d="M225.531,223.663a3.832,3.832,0,0,0,.824-6.15.046.046,0,0,0-.069.058,4.168,4.168,0,0,1-1.046,5.5l.082-5.261a.233.233,0,0,0-.086-.184l-.28-.226a.232.232,0,0,0-.293,0l-.275.225a.232.232,0,0,0-.085.184l.08,5.265a4.174,4.174,0,0,1-1.048-5.5.046.046,0,0,0-.069-.058,3.831,3.831,0,0,0,.823,6.15,4.244,4.244,0,0,1-1.5.238.046.046,0,0,0-.013.09,3.811,3.811,0,0,0,1.945.07l.247.478a.046.046,0,0,0,.081,0l.248-.478a3.818,3.818,0,0,0,1.946-.07.046.046,0,0,0-.013-.09A4.256,4.256,0,0,1,225.531,223.663Z" transform="translate(-220.614 -216.355)" fill="#ff4b55"/>
        <path id="Path_9023" data-name="Path 9023" d="M281.971,217.481a3.261,3.261,0,0,0-1.793-1.538.047.047,0,0,0-.046.079,4.158,4.158,0,0,1,.721,5.659c-.068.09-.141.186-.211.264A3.288,3.288,0,0,0,281.971,217.481Z" transform="translate(-273.98 -215.064)" fill="#ff4b55"/>
        <path id="Path_9024" data-name="Path 9024" d="M205.4,221.681a4.158,4.158,0,0,1,.718-5.658.046.046,0,0,0-.046-.079,3.3,3.3,0,0,0-.458,6A2.434,2.434,0,0,1,205.4,221.681Z" transform="translate(-203.884 -215.065)" fill="#ff4b55"/>
      </g>
    </g>
  </g>
</svg>
