<svg id="directions_boat_black_24dp_1_" data-name="directions_boat_black_24dp (1)" xmlns="http://www.w3.org/2000/svg" width="24" height="24" viewBox="0 0 24 24">
  <path id="Path_8881" data-name="Path 8881" d="M0,0H24V24H0Z" fill="none"/>
  <path id="Path_8882" data-name="Path 8882" d="M13,3V4H11V3h2m-1,7.11,5.38,1.77,2.39.78-1.12,3.97a4.407,4.407,0,0,1-1.14-.94L16,13.96l-1.51,1.72A3.546,3.546,0,0,1,12,17a3.546,3.546,0,0,1-2.49-1.32L8,13.96,6.49,15.68a4.411,4.411,0,0,1-1.14.93L4.22,12.65l2.4-.79L12,10.11M15,1H9V4H6A2.006,2.006,0,0,0,4,6v4.62l-1.29.42a1,1,0,0,0-.6.5,1.007,1.007,0,0,0-.06.78L3.95,19H4a5.452,5.452,0,0,0,4-2,5.452,5.452,0,0,0,4,2,5.452,5.452,0,0,0,4-2,5.452,5.452,0,0,0,4,2h.05l1.89-6.68a1.053,1.053,0,0,0-.06-.78,1,1,0,0,0-.6-.5L20,10.62V6a2.006,2.006,0,0,0-2-2H15ZM6,9.97V6H18V9.97L12,8Zm10,9.71a6.89,6.89,0,0,1-8,0A7.032,7.032,0,0,1,4,21H2v2H4a8.828,8.828,0,0,0,4-.99,8.837,8.837,0,0,0,4,.97,8.71,8.71,0,0,0,4-.97A8.7,8.7,0,0,0,20,23h2V21H20A7.032,7.032,0,0,1,16,19.68Z" fill="#7494EF"/>
</svg>
